<mxfile host="Electron" agent="Mozilla/5.0 (Windows NT 10.0; Win64; x64) AppleWebKit/537.36 (KHTML, like Gecko) draw.io/24.7.17 Chrome/128.0.6613.36 Electron/32.0.1 Safari/537.36" version="24.7.17">
  <diagram name="PÃ¡gina-1" id="hRW2yxmbIK6aJC1jZnIl">
    <mxGraphModel dx="2620" dy="1045" grid="1" gridSize="10" guides="1" tooltips="1" connect="1" arrows="1" fold="1" page="1" pageScale="1" pageWidth="827" pageHeight="1169" math="0" shadow="0">
      <root>
        <mxCell id="0" />
        <mxCell id="1" parent="0" />
        <mxCell id="kFS-a1BfFj7-nJZPOQID-1" value="Administrativo" style="shape=umlActor;verticalLabelPosition=bottom;verticalAlign=top;html=1;outlineConnect=0;" vertex="1" parent="1">
          <mxGeometry x="-20" y="220" width="60" height="120" as="geometry" />
        </mxCell>
        <mxCell id="kFS-a1BfFj7-nJZPOQID-4" value="Eliminar clase" style="ellipse;whiteSpace=wrap;html=1;" vertex="1" parent="1">
          <mxGeometry x="260" y="280" width="100" height="50" as="geometry" />
        </mxCell>
        <mxCell id="kFS-a1BfFj7-nJZPOQID-5" value="Modificar clase" style="ellipse;whiteSpace=wrap;html=1;" vertex="1" parent="1">
          <mxGeometry x="340" y="220" width="100" height="60" as="geometry" />
        </mxCell>
        <mxCell id="kFS-a1BfFj7-nJZPOQID-6" value="Dar de alta una clase" style="ellipse;whiteSpace=wrap;html=1;" vertex="1" parent="1">
          <mxGeometry x="350" y="160" width="90" height="50" as="geometry" />
        </mxCell>
        <mxCell id="kFS-a1BfFj7-nJZPOQID-8" value="Clase" style="ellipse;whiteSpace=wrap;html=1;" vertex="1" parent="1">
          <mxGeometry x="160" y="180" width="100" height="60" as="geometry" />
        </mxCell>
        <mxCell id="kFS-a1BfFj7-nJZPOQID-10" value="&amp;lt;&amp;lt;extends&amp;gt;&amp;gt;" style="html=1;verticalAlign=bottom;endArrow=open;dashed=1;endSize=8;curved=0;rounded=0;exitX=0;exitY=1;exitDx=0;exitDy=0;entryX=1;entryY=0;entryDx=0;entryDy=0;" edge="1" parent="1" source="kFS-a1BfFj7-nJZPOQID-6" target="kFS-a1BfFj7-nJZPOQID-8">
          <mxGeometry x="-0.002" relative="1" as="geometry">
            <mxPoint x="341" y="340" as="sourcePoint" />
            <mxPoint x="261" y="340" as="targetPoint" />
            <mxPoint as="offset" />
          </mxGeometry>
        </mxCell>
        <mxCell id="kFS-a1BfFj7-nJZPOQID-11" value="&amp;lt;&amp;lt;extends&amp;gt;&amp;gt;" style="html=1;verticalAlign=bottom;endArrow=open;dashed=1;endSize=8;curved=0;rounded=0;exitX=0;exitY=0.5;exitDx=0;exitDy=0;entryX=1;entryY=0.5;entryDx=0;entryDy=0;" edge="1" parent="1" source="kFS-a1BfFj7-nJZPOQID-5" target="kFS-a1BfFj7-nJZPOQID-8">
          <mxGeometry x="0.0044" relative="1" as="geometry">
            <mxPoint x="331" y="260" as="sourcePoint" />
            <mxPoint x="261" y="330" as="targetPoint" />
            <mxPoint as="offset" />
          </mxGeometry>
        </mxCell>
        <mxCell id="kFS-a1BfFj7-nJZPOQID-12" value="&amp;lt;&amp;lt;extends&amp;gt;&amp;gt;" style="html=1;verticalAlign=bottom;endArrow=open;dashed=1;endSize=8;curved=0;rounded=0;exitX=0;exitY=0;exitDx=0;exitDy=0;entryX=1;entryY=1;entryDx=0;entryDy=0;" edge="1" parent="1" source="kFS-a1BfFj7-nJZPOQID-4" target="kFS-a1BfFj7-nJZPOQID-8">
          <mxGeometry x="0.0044" relative="1" as="geometry">
            <mxPoint x="341" y="270" as="sourcePoint" />
            <mxPoint x="271" y="340" as="targetPoint" />
            <mxPoint as="offset" />
          </mxGeometry>
        </mxCell>
        <mxCell id="kFS-a1BfFj7-nJZPOQID-14" value="Usuario" style="ellipse;whiteSpace=wrap;html=1;" vertex="1" parent="1">
          <mxGeometry x="100" y="390" width="110" height="70" as="geometry" />
        </mxCell>
        <mxCell id="kFS-a1BfFj7-nJZPOQID-15" value="Dar el alta" style="ellipse;whiteSpace=wrap;html=1;" vertex="1" parent="1">
          <mxGeometry x="364" y="410" width="110" height="60" as="geometry" />
        </mxCell>
        <mxCell id="kFS-a1BfFj7-nJZPOQID-16" value="Dar de baja" style="ellipse;whiteSpace=wrap;html=1;" vertex="1" parent="1">
          <mxGeometry x="364" y="570" width="110" height="60" as="geometry" />
        </mxCell>
        <mxCell id="kFS-a1BfFj7-nJZPOQID-17" value="Modificar los datos" style="ellipse;whiteSpace=wrap;html=1;" vertex="1" parent="1">
          <mxGeometry x="350" y="490" width="110" height="60" as="geometry" />
        </mxCell>
        <mxCell id="kFS-a1BfFj7-nJZPOQID-19" value="&amp;lt;&amp;lt;extends&amp;gt;&amp;gt;" style="html=1;verticalAlign=bottom;endArrow=open;dashed=1;endSize=8;curved=0;rounded=0;exitX=0;exitY=0.5;exitDx=0;exitDy=0;entryX=1;entryY=0;entryDx=0;entryDy=0;" edge="1" parent="1" source="kFS-a1BfFj7-nJZPOQID-15" target="kFS-a1BfFj7-nJZPOQID-14">
          <mxGeometry x="0.0044" relative="1" as="geometry">
            <mxPoint x="358" y="420" as="sourcePoint" />
            <mxPoint x="224" y="468" as="targetPoint" />
            <mxPoint as="offset" />
          </mxGeometry>
        </mxCell>
        <mxCell id="kFS-a1BfFj7-nJZPOQID-20" value="&amp;lt;&amp;lt;extends&amp;gt;&amp;gt;" style="html=1;verticalAlign=bottom;endArrow=open;dashed=1;endSize=8;curved=0;rounded=0;exitX=0;exitY=0.5;exitDx=0;exitDy=0;entryX=1;entryY=0.5;entryDx=0;entryDy=0;" edge="1" parent="1" source="kFS-a1BfFj7-nJZPOQID-17" target="kFS-a1BfFj7-nJZPOQID-14">
          <mxGeometry x="0.0044" relative="1" as="geometry">
            <mxPoint x="358" y="570" as="sourcePoint" />
            <mxPoint x="224" y="618" as="targetPoint" />
            <mxPoint as="offset" />
          </mxGeometry>
        </mxCell>
        <mxCell id="kFS-a1BfFj7-nJZPOQID-21" value="&amp;lt;&amp;lt;extends&amp;gt;&amp;gt;" style="html=1;verticalAlign=bottom;endArrow=open;dashed=1;endSize=8;curved=0;rounded=0;exitX=0;exitY=0.5;exitDx=0;exitDy=0;entryX=1;entryY=1;entryDx=0;entryDy=0;" edge="1" parent="1" source="kFS-a1BfFj7-nJZPOQID-16" target="kFS-a1BfFj7-nJZPOQID-14">
          <mxGeometry x="0.0044" relative="1" as="geometry">
            <mxPoint x="338" y="650" as="sourcePoint" />
            <mxPoint x="204" y="698" as="targetPoint" />
            <mxPoint as="offset" />
          </mxGeometry>
        </mxCell>
        <mxCell id="kFS-a1BfFj7-nJZPOQID-22" value="Apuntar a una clase" style="ellipse;whiteSpace=wrap;html=1;" vertex="1" parent="1">
          <mxGeometry x="369" y="650" width="100" height="60" as="geometry" />
        </mxCell>
        <mxCell id="kFS-a1BfFj7-nJZPOQID-23" value="Cancelar la clase" style="ellipse;whiteSpace=wrap;html=1;" vertex="1" parent="1">
          <mxGeometry x="253" y="680" width="100" height="60" as="geometry" />
        </mxCell>
        <mxCell id="kFS-a1BfFj7-nJZPOQID-24" value="&amp;lt;&amp;lt;extends&amp;gt;&amp;gt;" style="html=1;verticalAlign=bottom;endArrow=open;dashed=1;endSize=8;curved=0;rounded=0;exitX=0;exitY=0;exitDx=0;exitDy=0;entryX=0.5;entryY=1;entryDx=0;entryDy=0;" edge="1" parent="1" source="kFS-a1BfFj7-nJZPOQID-22" target="kFS-a1BfFj7-nJZPOQID-14">
          <mxGeometry x="0.0044" relative="1" as="geometry">
            <mxPoint x="320" y="635" as="sourcePoint" />
            <mxPoint x="224" y="565" as="targetPoint" />
            <mxPoint as="offset" />
          </mxGeometry>
        </mxCell>
        <mxCell id="kFS-a1BfFj7-nJZPOQID-25" value="&amp;lt;&amp;lt;extends&amp;gt;&amp;gt;" style="html=1;verticalAlign=bottom;endArrow=open;dashed=1;endSize=8;curved=0;rounded=0;exitX=0.5;exitY=0;exitDx=0;exitDy=0;entryX=0.5;entryY=1;entryDx=0;entryDy=0;" edge="1" parent="1" source="kFS-a1BfFj7-nJZPOQID-23" target="kFS-a1BfFj7-nJZPOQID-14">
          <mxGeometry x="0.0044" relative="1" as="geometry">
            <mxPoint x="384" y="620" as="sourcePoint" />
            <mxPoint x="288" y="550" as="targetPoint" />
            <mxPoint as="offset" />
          </mxGeometry>
        </mxCell>
        <mxCell id="kFS-a1BfFj7-nJZPOQID-26" value="Ingresar al sistema" style="ellipse;whiteSpace=wrap;html=1;" vertex="1" parent="1">
          <mxGeometry x="370" y="70" width="120" height="80" as="geometry" />
        </mxCell>
        <mxCell id="kFS-a1BfFj7-nJZPOQID-29" value="" style="endArrow=none;html=1;rounded=0;entryX=0;entryY=0.5;entryDx=0;entryDy=0;" edge="1" parent="1" target="kFS-a1BfFj7-nJZPOQID-26">
          <mxGeometry width="50" height="50" relative="1" as="geometry">
            <mxPoint x="140" y="190" as="sourcePoint" />
            <mxPoint x="470" y="200" as="targetPoint" />
            <Array as="points">
              <mxPoint x="140" y="110" />
            </Array>
          </mxGeometry>
        </mxCell>
        <mxCell id="kFS-a1BfFj7-nJZPOQID-30" value="" style="endArrow=none;html=1;rounded=0;entryX=1;entryY=0.5;entryDx=0;entryDy=0;" edge="1" parent="1" target="kFS-a1BfFj7-nJZPOQID-26">
          <mxGeometry width="50" height="50" relative="1" as="geometry">
            <mxPoint x="820" y="190" as="sourcePoint" />
            <mxPoint x="470" y="200" as="targetPoint" />
            <Array as="points">
              <mxPoint x="820" y="120" />
            </Array>
          </mxGeometry>
        </mxCell>
        <mxCell id="kFS-a1BfFj7-nJZPOQID-32" value="Alumnos" style="ellipse;whiteSpace=wrap;html=1;" vertex="1" parent="1">
          <mxGeometry x="524" y="400" width="106" height="45" as="geometry" />
        </mxCell>
        <mxCell id="kFS-a1BfFj7-nJZPOQID-34" value="" style="endArrow=none;html=1;rounded=0;entryX=0;entryY=0.5;entryDx=0;entryDy=0;" edge="1" parent="1" target="kFS-a1BfFj7-nJZPOQID-8">
          <mxGeometry width="50" height="50" relative="1" as="geometry">
            <mxPoint x="70" y="250" as="sourcePoint" />
            <mxPoint x="440" y="320" as="targetPoint" />
          </mxGeometry>
        </mxCell>
        <mxCell id="kFS-a1BfFj7-nJZPOQID-35" value="Clase(1 semana)" style="ellipse;whiteSpace=wrap;html=1;" vertex="1" parent="1">
          <mxGeometry x="680" y="400" width="120" height="60" as="geometry" />
        </mxCell>
        <mxCell id="kFS-a1BfFj7-nJZPOQID-36" value="&amp;lt;&amp;lt;extends&amp;gt;&amp;gt;" style="html=1;verticalAlign=bottom;endArrow=open;dashed=1;endSize=8;curved=0;rounded=0;exitX=0;exitY=1;exitDx=0;exitDy=0;entryX=0.5;entryY=0;entryDx=0;entryDy=0;" edge="1" parent="1" source="kFS-a1BfFj7-nJZPOQID-37" target="kFS-a1BfFj7-nJZPOQID-32">
          <mxGeometry x="0.0044" relative="1" as="geometry">
            <mxPoint x="670" y="610" as="sourcePoint" />
            <mxPoint x="605" y="620" as="targetPoint" />
            <mxPoint as="offset" />
          </mxGeometry>
        </mxCell>
        <mxCell id="kFS-a1BfFj7-nJZPOQID-37" value="Listado" style="ellipse;whiteSpace=wrap;html=1;" vertex="1" parent="1">
          <mxGeometry x="560" y="320" width="110" height="40" as="geometry" />
        </mxCell>
        <mxCell id="kFS-a1BfFj7-nJZPOQID-38" value="Profesor" style="shape=umlActor;verticalLabelPosition=bottom;verticalAlign=top;html=1;outlineConnect=0;" vertex="1" parent="1">
          <mxGeometry x="790" y="210" width="60" height="120" as="geometry" />
        </mxCell>
        <mxCell id="kFS-a1BfFj7-nJZPOQID-40" value="" style="endArrow=none;html=1;rounded=0;exitX=1;exitY=0.5;exitDx=0;exitDy=0;" edge="1" parent="1" source="kFS-a1BfFj7-nJZPOQID-37" target="kFS-a1BfFj7-nJZPOQID-38">
          <mxGeometry width="50" height="50" relative="1" as="geometry">
            <mxPoint x="700" y="440" as="sourcePoint" />
            <mxPoint x="760" y="350" as="targetPoint" />
          </mxGeometry>
        </mxCell>
        <mxCell id="kFS-a1BfFj7-nJZPOQID-42" value="&amp;lt;&amp;lt;extends&amp;gt;&amp;gt;" style="html=1;verticalAlign=bottom;endArrow=open;dashed=1;endSize=8;curved=0;rounded=0;exitX=1;exitY=1;exitDx=0;exitDy=0;entryX=0.5;entryY=0;entryDx=0;entryDy=0;" edge="1" parent="1" source="kFS-a1BfFj7-nJZPOQID-37" target="kFS-a1BfFj7-nJZPOQID-35">
          <mxGeometry x="0.0044" relative="1" as="geometry">
            <mxPoint x="623" y="432" as="sourcePoint" />
            <mxPoint x="609" y="401" as="targetPoint" />
            <mxPoint as="offset" />
          </mxGeometry>
        </mxCell>
        <mxCell id="kFS-a1BfFj7-nJZPOQID-43" value="" style="endArrow=none;html=1;rounded=0;exitX=0;exitY=0;exitDx=0;exitDy=0;" edge="1" parent="1" source="kFS-a1BfFj7-nJZPOQID-14">
          <mxGeometry width="50" height="50" relative="1" as="geometry">
            <mxPoint x="330" y="550" as="sourcePoint" />
            <mxPoint x="80" y="340" as="targetPoint" />
          </mxGeometry>
        </mxCell>
        <mxCell id="kFS-a1BfFj7-nJZPOQID-44" value="&amp;lt;&amp;lt;include&amp;gt;&amp;gt;" style="html=1;verticalAlign=bottom;endArrow=open;dashed=1;endSize=8;curved=0;rounded=0;exitX=0.5;exitY=0;exitDx=0;exitDy=0;entryX=0;entryY=1;entryDx=0;entryDy=0;" edge="1" parent="1" source="kFS-a1BfFj7-nJZPOQID-8" target="kFS-a1BfFj7-nJZPOQID-26">
          <mxGeometry x="-0.002" relative="1" as="geometry">
            <mxPoint x="410" y="221" as="sourcePoint" />
            <mxPoint x="285" y="269" as="targetPoint" />
            <mxPoint as="offset" />
          </mxGeometry>
        </mxCell>
        <mxCell id="kFS-a1BfFj7-nJZPOQID-45" value="&amp;lt;&amp;lt;include&amp;gt;&amp;gt;" style="html=1;verticalAlign=bottom;endArrow=open;dashed=1;endSize=8;curved=0;rounded=0;exitX=0;exitY=0;exitDx=0;exitDy=0;entryX=1;entryY=1;entryDx=0;entryDy=0;" edge="1" parent="1" source="kFS-a1BfFj7-nJZPOQID-37" target="kFS-a1BfFj7-nJZPOQID-26">
          <mxGeometry x="-0.002" relative="1" as="geometry">
            <mxPoint x="250" y="260" as="sourcePoint" />
            <mxPoint x="398" y="148" as="targetPoint" />
            <mxPoint as="offset" />
          </mxGeometry>
        </mxCell>
        <mxCell id="kFS-a1BfFj7-nJZPOQID-47" value="&amp;lt;&amp;lt;include&amp;gt;&amp;gt;" style="html=1;verticalAlign=bottom;endArrow=open;dashed=1;endSize=8;curved=0;rounded=0;entryX=0.728;entryY=0.963;entryDx=0;entryDy=0;exitX=0.5;exitY=0;exitDx=0;exitDy=0;entryPerimeter=0;" edge="1" parent="1" source="kFS-a1BfFj7-nJZPOQID-14" target="kFS-a1BfFj7-nJZPOQID-26">
          <mxGeometry x="-0.002" relative="1" as="geometry">
            <mxPoint x="460" y="360" as="sourcePoint" />
            <mxPoint x="398" y="148" as="targetPoint" />
            <mxPoint as="offset" />
            <Array as="points">
              <mxPoint x="460" y="360" />
            </Array>
          </mxGeometry>
        </mxCell>
        <mxCell id="kFS-a1BfFj7-nJZPOQID-48" value="Publicar" style="ellipse;whiteSpace=wrap;html=1;" vertex="1" parent="1">
          <mxGeometry x="620" y="150" width="110" height="60" as="geometry" />
        </mxCell>
        <mxCell id="kFS-a1BfFj7-nJZPOQID-50" value="Avisos" style="ellipse;whiteSpace=wrap;html=1;" vertex="1" parent="1">
          <mxGeometry x="630" y="250" width="100" height="40" as="geometry" />
        </mxCell>
        <mxCell id="kFS-a1BfFj7-nJZPOQID-51" value="" style="endArrow=none;html=1;rounded=0;entryX=1;entryY=1;entryDx=0;entryDy=0;" edge="1" parent="1" target="kFS-a1BfFj7-nJZPOQID-48">
          <mxGeometry width="50" height="50" relative="1" as="geometry">
            <mxPoint x="780" y="230" as="sourcePoint" />
            <mxPoint x="600" y="420" as="targetPoint" />
          </mxGeometry>
        </mxCell>
        <mxCell id="kFS-a1BfFj7-nJZPOQID-52" value="&amp;lt;&amp;lt;include&amp;gt;&amp;gt;" style="html=1;verticalAlign=bottom;endArrow=open;dashed=1;endSize=8;curved=0;rounded=0;exitX=0;exitY=0.5;exitDx=0;exitDy=0;entryX=1;entryY=1;entryDx=0;entryDy=0;" edge="1" parent="1" source="kFS-a1BfFj7-nJZPOQID-48" target="kFS-a1BfFj7-nJZPOQID-26">
          <mxGeometry x="-0.002" relative="1" as="geometry">
            <mxPoint x="648" y="438" as="sourcePoint" />
            <mxPoint x="469" y="340" as="targetPoint" />
            <mxPoint as="offset" />
            <Array as="points" />
          </mxGeometry>
        </mxCell>
        <mxCell id="kFS-a1BfFj7-nJZPOQID-53" value="&amp;lt;&amp;lt;extends&amp;gt;&amp;gt;" style="html=1;verticalAlign=bottom;endArrow=open;dashed=1;endSize=8;curved=0;rounded=0;exitX=0.5;exitY=1;exitDx=0;exitDy=0;entryX=0.5;entryY=0;entryDx=0;entryDy=0;" edge="1" parent="1" source="kFS-a1BfFj7-nJZPOQID-48" target="kFS-a1BfFj7-nJZPOQID-50">
          <mxGeometry x="0.0044" relative="1" as="geometry">
            <mxPoint x="700" y="280" as="sourcePoint" />
            <mxPoint x="695" y="330" as="targetPoint" />
            <mxPoint as="offset" />
          </mxGeometry>
        </mxCell>
        <mxCell id="kFS-a1BfFj7-nJZPOQID-54" value="Revisar horario" style="ellipse;whiteSpace=wrap;html=1;" vertex="1" parent="1">
          <mxGeometry x="524" y="510" width="106" height="50" as="geometry" />
        </mxCell>
        <mxCell id="kFS-a1BfFj7-nJZPOQID-55" value="&amp;lt;&amp;lt;include&amp;gt;&amp;gt;" style="html=1;verticalAlign=bottom;endArrow=open;dashed=1;endSize=8;curved=0;rounded=0;entryX=0;entryY=0;entryDx=0;entryDy=0;exitX=1;exitY=0.5;exitDx=0;exitDy=0;" edge="1" parent="1" source="kFS-a1BfFj7-nJZPOQID-15" target="kFS-a1BfFj7-nJZPOQID-54">
          <mxGeometry x="-0.002" relative="1" as="geometry">
            <mxPoint x="235" y="430" as="sourcePoint" />
            <mxPoint x="467" y="157" as="targetPoint" />
            <mxPoint as="offset" />
            <Array as="points" />
          </mxGeometry>
        </mxCell>
        <mxCell id="kFS-a1BfFj7-nJZPOQID-56" value="&amp;lt;&amp;lt;include&amp;gt;&amp;gt;" style="html=1;verticalAlign=bottom;endArrow=open;dashed=1;endSize=8;curved=0;rounded=0;entryX=0;entryY=0.5;entryDx=0;entryDy=0;exitX=1;exitY=0.5;exitDx=0;exitDy=0;" edge="1" parent="1" source="kFS-a1BfFj7-nJZPOQID-17" target="kFS-a1BfFj7-nJZPOQID-54">
          <mxGeometry x="-0.002" relative="1" as="geometry">
            <mxPoint x="484" y="450" as="sourcePoint" />
            <mxPoint x="544" y="498" as="targetPoint" />
            <mxPoint as="offset" />
            <Array as="points" />
          </mxGeometry>
        </mxCell>
        <mxCell id="kFS-a1BfFj7-nJZPOQID-58" value="" style="shape=image;verticalLabelPosition=bottom;labelBackgroundColor=default;verticalAlign=top;aspect=fixed;imageAspect=0;image=data:image/png,iVBORw0KGgoAAAANSUhEUgAAA1EAAAKgCAYAAAB6PPeiAAAAAXNSR0IArs4c6QAAAARnQU1BAACxjwv8YQUAAAAJcEhZcwAADsMAAA7DAcdvqGQAAJznSURBVHhe7d09jtTK28bh4V0GQggBayBAQEDAsIATABHRkYYYQUJIMugfg3QiIobgLAAICBhEwBoAIYTYxrx9+/iGh4fHbld3z0fP/C6p8HS1XV92u6vaZXNqb2YDAAAAADDJ//VLAAAAAMAEDKIAAAAAoAGDKAAAAABowCAKAAAAABowiAIAAACABgyiAAAAAKABgygAAAAAaHBsBlFfvnzZOHXq1MaTJ0/6mOPt3r17XX2nuHjx4sbNmzf7VwAAAACWMXkQ9f79+67TrvDy5cs+9hfF6T2th99pAOO2i0EDv8PgfamBGNp5wM7AFAAA4GSaPIj6/v17/9fGxqNHj/q/MMWnT582Lly4sLG3t/czbG5udnEMOgEAAID10jydb2tra+Pz58/l1ShM9+rVq275+PHjbnmQrly50g3knj592segxfnz57v28z4EAADAydI8iLp27Vp3BeX27dt9DBalq1G6SgUAAABgfSz0YAlfPZn6EIfqnqBMaTleD0Lwer7vxPehOIxdCfP9WUPr+n2l6bzy/S25zFVd/XCHRa/K5QGU2yBP8XP80D1Usb309zxuy1yn3MYKOU/X2aG6L0jxStvlVhgqu/fF0D6KbeH0pDpGpvA2DjHfobKI8ohtq/XyPWW5bao6x3IrTNlfAAAAOFoWGkTdunWruxr18OHDPmaYOokaLOT7gYY6mYp//vx5t97u7u7G69evuzTiPUWaUqgrYdX9RCqTt1fY3t7u1q06xkpTA0KtF6dm5TJr+qLSXeWDGFR3pXvjxo0+ZjGxvVzWRTrmaku1h9rLae3s7PxWZ6WrK5F+3/unahe119u3b3+uqylwqxLrrPoOlSFS/bSdy6OQjyMd1/Lu3btuadpXyuPvv//uY/6k/J89e/YzbbVNLpPyVxvGMjgeAAAA62OhQZRMuRql99TJffPmTR/zHw9Y/ve//3XLSJ1P3bMjWqpjrzTc4ZT79+93yw8fPnTLSAO0OCB68OBBt1SnO1Mn2h1nq8qsAYAGF+okx4Gf7ilSuXIaU3jwtOx9SbG9ROVU+asB5hjtT7W120tUr9iWGljGuipftXfev7Zf9wzFOmvfaD9q34zR+vEYkuo4qtL6+PFjt/zrr7+6ZUXHhdrClF+svwdUuU3cdmOfIwAAABwtCw+i1JlWp3HsapSuRKhjXl2FGOp8nz59uv/rP74KVfn69Wv/1y/Xr1/v//pFeelKQnbnzp3+r1+Gynz27Nlu+ePHj27ZSgMbXXFw8BWJZcUBlFy+fLlbVgPMMWqfRa+KqW6ZBiP7JR8jy4rHkY+JeOVSA3AdQ2NX03TcqQ2HphbqWI+DLFOaOt503AEAAGA9LDyIEj/qfGgqla5cLDK1bNXGOr+VPOBRWPZBGuooa9DksF9XaRYZYPjq2rlz57rlGO3P2C7V4PSwxKuEFU/pc6gG5xqUKj5O6VMd796927+q6QqergJqXacfy6NjqvU4BAAAwNG01CBKHU79uq7pT9++fetjf5cfnnAY1JmtOsxD8oAnhnzlZ5V8tWsZvlK2SFrVlb1IAwOJ7VFdXWlx5syZ/q/9pStLV69e/e2er+oKmujeJ0/p8xWpKVM2NZCK6eZjbt4gDwAAAOthqUGU+GpUNa1P08PUocydR71eZvrYmGpaVEtempZVlfkwjU31yvc+eRrfpUuXuuUUnlI2dG+TOJ+D+n+t8sMdluX04j1fQ3zvk+qs7VqnJqo9NVgTH0dDU0qVh463ahoqAAAAjqalB1G6MjPUyfSN+3kA49f78Z+9qqMa70vxVMPq/qeKO9m5zOrs5qmJSltXZ6on/y3CVzviQEV1qTrfpqsrHuCow67B7Lz7dyrKU535+IADpeu29DTBOLjRumNlm8LT5zwYF7XrvAdFtPJURbeVDA2s1XZqwxcvXnTlmHfsqN19lc7yvXWuX75nSvtP600Z3AEAAOBoWHoQJR4sZepAanqT+D4RhVU9VKGix3IrX+elTrAGBy3T8Koy656Yg5iaqLJqYOJ8dYVCdaqo86311RHXunqtAe0i91tpAKd8NAhz3krXaalN9VQ8taff10DBV1yWoXZVPZyuKK9V0iBFbeO2UvATCSva36qr3p937Kht1HZOV0H7MB4vSkPHVdy3CirTUZjyCgAAgOlOzTp2+zOaAQAAAIBjaCVXogAAAADgpGAQBQAAAAANGEQBAAAAQAMGUQAAAADQgEEUAAAAADRgEAUAAAAADRhEAQAAAEADBlEAAAAA0IBBFAAAAAA0YBAFAAAAAA0YRAEAAABAAwZRAAAAANCAQRQAAAAANGAQBQAAAAANGEQBAAAAQAMGUQAAAADQgEEUAAAAADRgEAUAAAAADRhEAQAAAEADBlEAAAAA0IBBFAAAAAA0YBAFAAAAAA0YRAEAAABAAwZRAAAAANCAQRQAAAAANGAQBQAAAAANGEQBAAAAQIN9GUQ9efJk49SpUxvv37/vY9pdvHhx4+XLl93fSk+vT4Lcdvr75s2b3d8AAAAADt/kQZQGNOrQe2Czn+7du9ctb926tfHly5eNhw8fbjx+/LiLizTQUJli8LamwdfYAEzbVIMU1zeGIXm9sTZyugyMAAAAgPV05KbzaWD07Nmzn4MmDYouXLjQDagixV+9enVjd3d3Y29v72eQZQcouhp0+/bt39JWGTT4iTTAU9zW1tbP9ba3t7tt80DK6+q9MW/fvu3yunLlys+rUXfv3u2WAAAAAA7fkRtEvXjxolteunSpG3i8fv1648aNG12caYCigZYGORpsRE+fPt149epV/2oxuvKlgVFM+82bN91SAyz73//+1y2Vpz148GBjc3Nz49GjR33Mf1QHDY48IKto0KT6Pn/+vHutgaTSygNIAAAAAIdnLR8soQGKBhd5ALUKvoJ0586dbmnnz5/vBj///PNPH7PRDeQ02MquX7++8fnz559XkuTTp09dGKNBk65k+SqUBlTLDggBAAAArNbSgyhPU3PI9ySZBgV6f95UO13V0dUaDVoU9He80qN0NEDRQGU/fPv2rVuePn26W0a6t0p5i+ot586d65bR2bNnu+X379+75VQaMOlKlmggpboDAAAAOFqWGkRpIKGrM7oqpA6/O/2aDrdfPDDxQGXVvn792i01gMti3I8fP7plVY4zZ870fwEAAAA4bpYaRPmeoDjlTFeNNKjKfGVlVdPTGKgAAAAAOAxLDaL0sIVqwLRfU+2i1qlyAAAAALAKa/dgCV+B8r1L80z5T3qrqXu+5yny9MWoKocHeFwtAwAAAI6ftRtE+Yl8+v+UpvLDIIbEh0P4b9/zFOnpeh6U+cETvocqGns4BQAAAID1ttQgSgMKPYY7axngLEKPFVe+8RHiQ/wf1Vbr+nHmly9f7pby119/dcsPHz50S/NTAZ2erl5pKqP//6hIj0HXe9UVLgAAAADrbalBlP9D2fhYcz3CvBpYTX3E+RR6eIWm1V29evWPwZHKEvPQf1TrdeMUPW13+/btP/5TXQ18FKcnDMa0NXhSOvE/vlX9NbCK9dd/xqu4/J/tAgAAADgelhpEafCxu7vb/aez/n+i9FAJxe03Ta3Tf0yrwZHzVpD8BECvq0GQ19N2Kmf8P6hMcRpIxbR11S3/Z7lV/TX40iAqDsxE23sdva+Bpl/7ihgAAACAo+/UHv+jKwAAAABMtnYPlgAAAACAw8QgCgAAAAAaMIgCAAAAgAYMogAAAACgAYMoAAAAAGjAIAoAAAAAGjCIAgAAAIAGDKIAAAAAoAGDKAAAAABowCAKAAAAABowiAIAAACABgyiAAAAAKABgygAAAAAaMAgCgAAAAAaMIgCAAAAgAYMogAAAACgAYMoAAAAAGjAIAoAAAAAGjCIAgAAAIAGDKIAAAAAoAGDKAAAAABowCAKAAAAABowiAIAAACABgyiAAAAAKABgygAAAAAaMAgCgAAAAAanIhB1M2bNzdOnTrVv8Jx9PLly24fK1y8eLGPBQAAAFZv0iBKnVJ3UIfCvXv3unW11Ov37993r3GyaL/nY0PBx8d++PLly8bt27c3dnZ2Nvb29jY+ffrUvwMAAACs3qRBlDql6pw6yObm5m9xT58+7eJxsn3//r1bekCjsLu7u/Hs2bPuiuB++Pfff7vlpUuXuiUAAACwn1Y+nU+DKXWcr1y50sdgiK/aaCracaZjYXt7e+P169dcoQQAAMDa48ESOBCXL1/ulr5StUpfv37t/wIAAAD238oHUU+ePOmurug+FdM9VYpX3JT7ZHxfVQwxvTHxAQMKY1d58rotDySI2ykM5ZPvJ/N6ir969Wr3t+7n8ftRdX+R2jFzvNteIbbX1HrGsuZ1XJZFp+RVgyelN1buefX38aSpgnLhwoXuddwXVRqVsbpLPnYVquNX7aMQ8x06NgAAALCm9hagzTY3N/tXv9ve3u7e//z5cx+ztzfr3HYhZre7u9u93tra6mP+o3RzsbSO4rTNmJ2dnW49lcGcb07T5YxpVnlnLnc0VD7FxXZSm8RtnZbKnbku8T2vn9tMcQrVPplaT7VT3F7bxXZ03lUeUVVucRvF40Kvh9JsqX+VtlRpVOtOrXuM877MZddrxSsAAADgeFqop1d1Hk0dTb2fO6lVp9IdTnOnN3b4LXd0K0PrKM2YjzvAsVMsQ/HzVNtV7ZC5cx47+ab4PFiQKl29Vsha6lmtt4hq4OK4nL7iFCqKn1r/oUHUUBo5Xq/H6j50XFXHq4/p6hgGAADA8XBg90TNOpf9X79cv369W2rqk7x7965bVg+luHHjRvdggiGabjXrRP9MM8p5f/z4sVv6Ph07f/58t1z0Hpu43du3b7vpZU6zhdvj2rVr3TJymV0Hmw0K+r9+aamn2ujhw4e/TZdbRpyiqL9ng4qNBw8e9O/+UpV7kfpnY2lov8Rpg2N1Hzuu/DTADx8+dEtT+jxYBQAA4Pg61AdLnD17tv/rP+qwqgN6UHRPkjv6DlPE+10UqjLrsfBD9x7N4/uHzpw50y2XNaWer169+jmY0PuLlt12wiPOFVoGFausfxzMOWhQFI3V/cePH90yH6sAAAA4uQ51EPXt27duefr06W4puYO7n3R1JHb0Hcb+zys9JECDku3t7Z/rD5V52f/0dVVPsptaTw0mFK8BkOq0X/+v01SrqH8ezDmortG8uvtYBQAAAA5sEFVNxctT3vL0vkhPYMvT8iKnoTSznPfQNKwpPOWwmpoWafqhOuNx2thULp/zil68eNEtp/zHsovW89atW11bLzsIXNQq6u8rX1UaY3LdnU51XPk/+c3TJQEAAHC8HeiVKE2VMl3R0eDm77//7mN+DUz86G/zVYGxK0Siq0NKMz5SOuZpGnDpXhxN38oDNk3lqgZxdu7cuW4Z19GAKbt//363zI/BjuXxFbjc0Xf5NHCMddHfilM9PWgcM7WeSjdfeVE7xnppXZX9IK5Orar+Wi+nIaqD46bU3cdVvGdK7aF2VTm5/wkAAOCE2VuANtsceFLerMPZvf85PCntQv90Mz2xTO856OlmFa0b19P2Uzl/B+XpuCyv6/XnmXWcf9tG9VAZFR+pDeJ6Cjl9bev3cj3jew5V+RSf846m1DPXKe9frV/FZy7z0L6NtN5YuafW32WPx5xVaeSyzau7uP4xVHXUti3HKwAAANbPKf0z6xDuK131UMj3oQAAAADAujnUB0sAAAAAwLphEAUAAAAADRhEAQAAAECDA7knCgAAAACOC65EAQAAAEADBlEAAAAA0IBBFAAAAAA0YBAFAAAAAA0YRAEAAABAAwZRAAAAANCAQRQAAAAANGAQBQAAAAANGEQBAAAAQAMGUQAAAADQgEEUAAAAADRgEAUAAAAADRhEAQAAAEADBlEAAAAA0IBBFAAAAAA0YBAFAAAAAA0YRAEAAABAAwZRAAAAANCAQRQAAAAANGAQBQAAAAANGEQBAAAAQAMGUQAAAADQgEEUAAAAADRgEIVj5eLFixs3b97sXx0t79+/3zh16tTPcJK9fPmyawO1yTz37t078e2Fg/fly5fuuHvy5EkfAwDAL5MHUbkD6KAOzrpSZ3sd66QvdZVTHdH94A7uWOfBHYyDait3pKswpSN+FFy9enVje3t7Y29vrwtYjI+9ozpYPi5o59XQDztqRwDA8TJ5EPX9+/duubOz87MTuLu7u/Hs2bO1/ZL99OnTxoULF37WR+Hz589dndapc34YNKjZ3NzcePr0aR+zv9Shk7ivHK5cudK9d5R5wHv58uVuCQAAgPW11HQ+dV63trY2Xr9+/bOTu+7Onz/fdcw1uNKVg6PowYMHXRlv3brVx6yW0lX6yqeiAYH2+atXr/oY4OD4M8rxt79o59XQj3Vqxxb6YVJXsAAAR9fS90SdO3eu/+t4ef78ebdkPvyfPMjCdN++fev/AgAAwLpbehD19evXbqlfLc331OjqlOeD5yl/eq14hzhY8Vz86n4b3w8Ur3xV92sty1PE3r592y0j18mhujfJ5XSopgaOpePtxe+7Pdy+MU21p9/3+gpDUy3zPUaxrd2euV7eL0PbmfJUyOtXA1KXo2rD/aI83S5xH1S//CpO67vNFWK7V8derqfiHj582P2tq5t5napd4/FtKnNcpxLfV6j2v+qjesV8q31jWlfv53Lmfe+2yGkNHU/mY8Chqnum9XL+EvenQs5TZYvvV/vcx2/ctzGdKWlkPn5yeRwfjymnL7E+1b4c4m0cYr5DZRHlEeuj9XI7T9lfeT9MaSNz+ca29T7Kx2Q+9sbkMlbtMcW8z0VuU8l1dN6O15V+TS33+7leStPvVe+L43NePtbifhzaP3lfK18AQG9vop2dHV166Ja2u7vbxW1vb/cx//G6eX27cOFCF2z2ZdGtu7W11cfs7W1ubv62jilO71lVLqWjOKU7Jpcjq95XujH/qg30d8xfy3npuA3MaSgoj8h1jvFuL8XHfPU65iN6rfhI2zo91ym2aVXPeenHPKr9JN5XOT6rylxRPXJ5MuXptoptqNd5P3m9HC9VndxO8VgW78+Yn1TtWq2rOsUyKM+Yh/dFzldxuexucwUfK2O0vdvBqnpWdRHHx3Zy2+X1vZ9juVzeSK+rusZ97zYxvRfzajl+bWoaWXWsiOPjvvb+j/HOJ9c5c1tHbr+YR5WW84j1y+s5LVOaue56P8fl42eI6x7L6v0ROS7GD7VxRevFMrrdqn0b47JqHaWby58/u9om748obxP582hDx4biFGI99bfitL3L7O3jeqJ1Ylu6jXI+AHBSzf9W6/nEXwWdhCOvW51s/SWZt8nx1ReNT/bxxD6Uz1B8lL+MsvxFpvSUbpbj9Xos3aE2iLyOv+iiqm385ZjTdNkc7y/C2IZZtY7qk79kZaws2VAaUzjNHPI+npKH2ySWWdzmMV7pKa7aV1X+Uu3fKm0ZKm+O1+sqL9O6Wier9qXrP3YMRG6DzPvEnFc+Zqsy+LgZWjfGu7yRXsf2qNp8iipt1yvvqyFVGpnrm9vc8TGvoWNlSj4VtYm2m9emLktsQ72O7ay2icdlNlTGqgzZ0DpVfD72bOjzFA2VMcdPKbOP17FjReWJn02lV+Uf5W3M28Z9JFW8Xue2GPrcDbVJNlQuADiJmqfzzU7COtP+DLOTb/cQhmoqxJ07d/q/ftH0OK0fp//J2bNnu+WPHz+6pR+a8OLFi24p//77b7f0e56WcO3atW4ZKY8p04LG6Ibg6M2bN90T6TLfF+b8VJ7Zl9ngFImhNqj89ddf/V/zVWm6bT5+/NgtP3z40C0vXbrULadQvVSf69ev9zG/OB2nayrLfojHnsIyTwfMT/Xzk/NyXbTPc7uOHXtOx20+ZKxddezE4+/GjRvdUyPzVCHT9B+tk7mO796965ZRy4NJquPe5Y5T0VrlpxWOTaMd0/KZquRzhdLKx8c8y55vstOnT/d/rYanXovPzfG8rftAq2M90j7XsTY0rWvoHKk01aZj+9Wfl3xMuDyx/LLoOWbqeXwKHyOapjv1c+D6aXpcq6nfn5bXO3PmTLf0+tmUuuucBQBYwT1R6sTqpP7o0aM+Zj6dhOM8a4Xbt2/37/6iAZq+8ExfIIrLtG1ObxUneqWRB0LqQOS8fL+LqXOqwWasZ/yCVed4aIC1av7StOoetnn8xTz0xdsiD0yPkpZOqx/5n9t3ETp+4vGkoOMs0udMx74fv69g7vgc9ENeVnE8VBbpHE/9TOV7SdSerVaRxjLmdXR1ronlq9pTnX/Fx8G1jrm7d+/2r2p6Yuf29vZv58FYHp3zWs4tFd83GEOLKeeYKefxqfRjjrjcQz90mNp+d3e3+9t5Vz9CDpn6/bkK+kzFfPJ5CQBOsqUHUaITbcugRV/e+YqCQ/z1V7+WKl11CvRFrRN4dXUrXx1zWObRvB705E6FfsGs8lKInQc/wU5B9AUbOxsHNZgY6uzP64hVjvsT5hYZLLp9l6FOaTyOHPIxooGU4t0By4OG/Ev9fvPx4MHnqq6cLNoRn/eZUnvpHBLbuPpRZsyiaaxisD2FOuM618Rjaujc/Pfff/8cALoTP+XqpP+LBaebB2mLnFsiHd8uewyr/D/ppp7Hp/K2/qFj3gMu9D3nbdR+GgRNvZI19ftzWRo0SUy/uoIHACfVSgZR6rzkL9Ihmg6iL98pX7T+tVTTqzTVQ3/HLwn/XU1VWpYHT7FToelSi/wSp0GeuJOudKa2QYsqTbeN2ypP75vC21ZTcTzFMk/BWQe509Iy1dHrVMeep6DOS0edNR3TY1OcKtof6qy5E+t04lVbc+e4mnbYojruh6YWZXl6ZJTf8z5pLe+8z5Ti9b4GF4taRRrZqs9dTm/o/3iLPFVYba7tWgeU2u9uC7e7OtnVsaI81HbV1FUbmhq8aouex6fwQK/lBw3/dxpTfpBp+f5chj+Hjx8/7pYAgD8tPYjSL246qU892frLPd+/oZN2/mVd9GvpP//8033R6O9MX+L65S9Ph9CUm5YpEpF+gVOdFKL79+93y3w/gPKJcdo+fsnlgYzTydM+/MvfMtSpdd5qU7VN7BxpUKh18vQPld9fnBW1szoe8RdWra8pMErfdWvlR+guuq+WEe9jUJupLuoETvklWuv4V+dYdv2tOLXXlHT0ucntKmoXx1WfjXxfh9LR8RqPKdVJ+1nrTbnCME88PlVPlTt+JlVf5RWnRakOY9Ok9F6se/XjxRTzPlPeF3HA6n011TJp6POhz12c9qyytuQ/had0xs9yPtea95cG/SpHdZU/0vGUz1F5IO365XOkPmtab2xwpzT0mdIxkc9FOv5z3KKmnseniJ9TcRnHfgTIdal+vFFbVIOl1u/PRfmqchzkq577NfgEgLW0N5GfQlSF2cm+X+s/fgLQ2BOLZl+ov6Wh1xWl7XVyPub8YlDcPLMOxB/bKcw6wP0atby+0omqtsplj/VyiO2lMlTbSdW+KoPaMKc7VJfc/nE9lz+3YVWvqp1dlkxxOX7WaRpMJ/J6VYjbKv28PzKnJTEdxWfz0vO+iCHuF/P+rN6r2jXvN2/vULVvdUxV+z/Wfwq3QS7n0D7T+l5H27lccX23m96L61f1qsqr13l/VfWP7Z3fV16xHDZ0/MrUNIbEbVV+t2ksp/d1Ts/tMC8fr+eg8qmcub3EZR+qr96L23n9GCp5nSrvIflYV4jtI0P7SHFDdclyHvlz7n1dfYYi5RfTyevnsuZjSCHXT2K6avco51nVWfG53X285fR8zMRjy+s6qB7eNwCAvb1T+md2UsSa0y+omlZ5UPdarTNfAeDQn0a/cCssc48hAADAcbKSe6IAAAAA4KRgEAUAAAAADRhEAQAAAEAD7okCAAAAgAZciQIAAACABgyiAAAAAKABgygAAAAAaMAgCgAAAAAaMIgCAAAAgAYMogAAAACgAYMoAAAAAGjAIAoAAAAAGjCIAgAAAIAGDKIAAAAAoAGDKAAAAABowCAKAAAAABowiAIAAACABgyiAAAAAKABgygAAAAAaMAgCgAAAAAaMIgCAAAAgAYMogAAAACgAYMoAAAAAGjAIAoAAAAAGjCIAgAAAIAGDKIAAAAAoAGDKAAAAABowCBqoidPnmycOnVq4/37933MyXPx4sWNmzdv9q+OFu0X7R+Hdac6LNrW2vbevXv9q/WjsqsOX7586WNOJh/TL1++7GNOhuN+rnX9TvrxDQDrbvIgKndSHda5s7YsdXLVBi1fhuoQaRt9kQ5RegfZtu60VmFdOjJXr17d2N7e3tjb2+sCDs9RHmwDx4G/j0/y9y8AHLbJg6jv3793y52dnZ8d1d3d3Y1nz57RYVoxfTFubm5uPH36tI/ZXx4Eer/GcOXKle69o8y/1F++fLlb4vDo2P38+fPGq1ev+hgAAIDjZ6npfOpg69f/169fH9upF2PUUdRA4/z5833MfLdu3eq2efDgQR/zOw0I1J50QrFudA7Qjyr6ceU48lXkk3iuw9Gi7159j7T+0MbVKwBYnaXvifKv/75SheV4kIXpvn371v+Fw+SO3TpcvQQAAFjG0oOoavCkeyL0a5d/uc2/3no+dwyVKev5Jt0Y8i/FvsdI5cnrV/czeX2HoV/uFK/3M8dX27tOnoJmOc+8nWnqpEJev7rHyuXIee0n5enpnToOXD79nS1ynOR6Ku7hw4fd37ovKq9TtWu1z1XmuE4lvq9QTWNVfVSvmG+1byLvJ4eqfJbX1eshuf2GypHrXq3neAWvF8uZ0xgrVzS1jFIdD1PFY0yhOh4lrhP3r17fvn27+9vHWU5jShsofqwdp4jHlsNQe+cy5fXdprndHV+dO1TvmFa1TlVGpZnl9caOm5Z6V1qO83y8VGWvVGVU3CJyGWI7O59cB7VH3MZ5O150tdjv53o5fuh9l0npxvaMnwXHKVRtLPkYGloPAI60vYl2dnZ0eaRbRltbW13858+f+5i9vQsXLnRxWmZVOlUa1Xrb29vdulZtp3XydnpfcQpx+83NzS4u8rp6z5yPwu7ubh/7Kz6q0lQ7eDst9X4sn+NUdqvKIU4/5lG1lbh8OT6rylxRPXJ5MuXp/R/bSq/z8eD1crxUdXI7xX0o3ucxP6natVpXdYplUJ4xD++LnK/ictnd5grxuBzi9V2eeKwO7fuoWs/b5zopLraFaJ243lhdFar9r/jYnkN5Zd4/MS/XUSG2X3U8uO3mtfPQPldcpNexLPo75ucyxHQsxw+1geIUqnbM3D6xDI6L6Xqf5TT1ujoG5qUnVd6S86m21zb5c+H2jvuqKrf3qYLStpZ6V5Y5zqceZ1UZ9bfiYl0cN5ae91XcTq/N5Y95uZymbXPb6P1cZ6naozpeHBfjva3aV0vXy/WM23tdryPVegCwDub3nHs+ecYTnePiiVzyyTRSfHUSz/FKY+zL0V9Y1YlX2035wqzS0DqKy5Sm4uOXWl53rExWrTNUV7dvzNPlyOa11xinmUNuryl5uE1imcVflDFe6Smu5ThxOtWXcM5zqLw5Xq+rvEzrap2s2peu/9gxYD4u8+fH6cYyVseCVPF6XZVXcTG+akup4vVaYSrlM+9YGWpXxVX5V/toKN6G2jjH+/XYfhvaB0OqNtD2ClNUx9dQu+ayDdVHcbG9nMfQMRi397GdDcVHLempfop3XWRqvSutx3nOJx8rQ4bKmOOHyhN5nSFVmZRHlX+kbarPi7ZTObMc7/bOx5XWq+o0lF82dT0AOEqap/NpSosvwevv2ZdX+ZCE2Un1jwcueGrAtWvXumU0O1H/nHqg5exkvHH9+vXudeXDhw/d8tKlS90y0nba3unZuXPn+r+GvXnzpit7NlYWGyvTkLG6Oh2na2qr/TA7Hn4LyzwdMN8X43vncl1ajxOn8/Hjx245ZKxdNZXk06dP/auNjRs3bnRTXIamBulBH1oncx3fvXvXLSPd2zaP65CfKljdU+Q88ntnzpzplnlabVVexcXPxdu3b7tjKbf/2bNnu+WPHz+6pc06Of1f08Q2rgy1a46bet6oDLWx6/z169duqddKS+e0anraoqo2aG1HW+RcsUpD50afV8f2g8X7F6eea5etd+txntebYqyM+XwzhY9Xfc9Opbz1mYrTUKca+iyqLVSvzOcdc5tVbTfluJCp6wHAUdE8iNoJjzhXWOQm8jgQc4gnan+p+UuuEjs/y1rVgwkWKdOUuk7V+kV9kE6fPt3/NZ8HBPmLehG6Xyofa+owRBosqmMb7xUwf7FPGYAfhFgPBd2fM1VVB33ucpq+96dFTqPqeC1r3nljjO9jiiHT58cDKb3f2hnN6a+6DVrOFToHaYDy6NGjPua/+0flzp073XIR+uzkevqexCjfz9NynGarOEeu4jj3+X3MlPPNFPpe1Q+U4nTmDe71Y+Z2/7Rcb9MyMInnPwfFrZrKlPMBgHW09IMlFpEHYg75sd5TBjdH8derRcp03J8wt0hHaBVPfFSnojrW8oBTAynFu+MSb5SWKR2og5Dr4TDlylc1yNegoUpPYcoPJO4QqcMet1W6qzb1vFHRfq22zVdbdVwo3p3RKQ8uOMg2kKnnCpU/Dh7UwVc7xP3a8uOG5DrG4ONKgzUNUOL+8udqGcucI5c9zqeaer6ZQuXy9h7c5wc9ZBpIaX0P4FuOQf2Q5PxyWBWVX2XKeQHAOjrQQZS/rKrpT5HX0zSMIZ7aU03r+ueff7oT9SJXqdR5rn45HCuLjZVpyFhd//33326ZpyKtg/xl3zLV0etUx8mLFy+65bx0tO91DEzZb5H2h77g3QlxOpp6lPmX4Wqa2RS+0panIlUdJecxrxNlVXnz9ClN/1E9l/khwsd6vOIx1VC75rip543KotPc1BlV+aa0zTJt0KLlXOFjM3ZUFZzGPFV7abrXlKsqKp/abt7Afuq5dtlz5CqO83kWPd9M9fz582459YcllUcDOplSb50Xqs/iqvm4un//frcEgHV24FeidGLXFIE8NUFTZ2KcfwmOcfrbvwzrC1pfWvp1Ln5J6H19YfpLp5U7QvEXaJVtSuchlinS9mOdX9c1PuZV6+uXY3Xop3Z8MtVBv0Dntj4Imr7jOmv/qC76op4ysNU6nl6X97/i1F5T0nn8+PEf7SpqF8epjPmqUx5sKB0dU/GYUJ20n7XelKtAFe1Xba+28TGs8lRTn3xs5fe0nfZxpvLGeqm+irt7924f899AQap7kHKbDKkGgv4MzuN2jftH+VbbTj1vZD6W1MY+Hk15OU5lyPtX5Yj3uAwNepdpg1at5wpfhYrBx5qofXwMmtKOr80d3zzNUe0f45Sm6h7zqY7plnPtMufIVRznU0w530wVj03xsTX041F1HvBgNp4r9boaLGlfaJ/FfSEqd45bhmcixB8a8/EEAGtjbyI9jUeraznP7EQ9+pQgpxVDle7si/O3dZRuNvsC/W0dhWz25dDFK71od86TqRz0vuO0NOedqZx5e3M6ub45z2odUbtW7aC4HO/yzdtnVRs6xG2V/th+ldgmMR3FZ/PSU94xDYXY/ubjpHqvate8v729Q9W+PoZiyOnI0DExRm0Q03Vc1TZ5Xa8fKU5ly/Wq2kdU37heVX/FV/tQ8n7SegpVOlneVq8dpzaPquNBcVPktlDI7ZHbtqpvTCfun1y2oTbwe1P42M11rI7pqh2UT45XnNbPdY/HgOrl471K1+vF9bPcli5z/szkuuh9x+Uy5nUVqvINWfQ4d1tM2W9VGXOdfQzl4zuqzjexPfx+TFttkbfJcrqxDFWeuc7OI+8bH1eZ4vLx4fo76LXWqY4jADjKTumf2YkMWAn9aqkrBhxWwOHRFQRNa8734uiKxWzw0F3Z8RUaAADQ7lAeLAEA2D9D9+as8mmgAACcZAyiAOCY8X1J+X4x3xO36H18AADgPwyiAOCY0aPbNWVPDz+JD5XQAwuYagsAwPK4JwoAAAAAGnAlCgAAAAAaMIgCAAAAgAYMogAAAACgAYMoAAAAAGjAIAoAAAAAGjCIAgAAAIAGDKIAAAAAoAGDKAAAAABowCAKAAAAABowiAIAAACABgyiAAAAAKABgygAAAAAaMAgCgAAAAAaMIgCAAAAgAYMogAAAACgAYMoAAAAAGjAIAoAAAAAGjCIAgAAAIAGDKIAAAAAoAGDKAAAAABowCAKAAAAABowiAIAAACABgyiAAAAAKABgygAAAAAaDB5EPX+/fuNU6dO/RHu3bvXr4HDdvPmzW6ffPnypY8BAAAAsGqTB1Hfv3/vljs7Oxt7e3td2N3d3Xj27FnXeQcAAACAk2Cp6XxXrlzZ2N7e3nj9+nV3pQqH69WrV93g9vz5830MAAAAgFVb+p6oy5cvd0tfqQIAAACA42zpQdTQ4Mn354zdO/Xy5cvf1tHrTNvFdRSqe37yelPuC3ry5Mlv21y8eLF/Z1zerroKl+uvbSpxnRjcFs4r5+H4WE+3QaTXWjeW2ds4TksAAAAA0yw9iHr37l23vHTpUrcUdcwfPXr0894p3Uele6diZ12DhNu3b3f3VXk9vY40ENF2fl9ha2tr48KFC78NKjR4iOspzWrQFvk+Lm/z+fPnLsy7v0t1ePjwYbeut7t7927/7n80GPv06dNvaWubXCa1k+rj9fS3aP1bt251f6+C8n779u3PfJjuBwAAACxuqUGUBkIavOi+qNgxV0dd90uZBgQa+Kgjb9++feuWcT1tZ0pb91ppQBQ9ffq0S+vx48d9zEZ3ZWVzc7N/9V+auj9ojN5/8OBB/2qjK78GMcpzzNevX7v8XV8tNWAyDbI0CHrz5k0f8986aiO1la8C+UrT/fv3u6XcuXOnW378+LFbrlLVHqq/2jy2AwAAAIBxzYMoXS3ytDBfSZraCY+DDd9LpXQqvsIVB1l248aN3wY7169f717Pu4o01dhUwGvXrnWDpKGpfxooxkGWnT17tlv++PGjWx4kX+ECAAAAsLzmQVR8xHm+4hR5oOWggUek7XyVyev46oxoIKPByBQaxPkpgU5rbCBk+b4lXSmaR1fV1Aaqj7fL9yvF9xzyVEVP1/vf//7XLcVX11Y5lQ8AAADAai19T1SmwYsGDZpeFwdb1YBIA6n4vgYacUCSB15jPDXN28wbgOlKkgZdzl9h6hUbDXK8jVy9evW3QZvyjunG4EGn66mBmwdaLk/kK1gAAAAAjoaVD6J8P48eLNHi+fPn3dJP+9MUPclXeUQDj3gPVOT7j2ToapTiNdjyesvQVSnxND2VW2nPuxL24sWLPwaaeQA1Jt5fBgAAAODgrHwQdebMmW754cOHbil6Kl2+qqQrQXGA5PX9lD/fZ6WrPJHve9IDJsRXvqKh+5LM8XEg4odkzKO84gAp37vlcuu+rUh1zfdRxemHDnkdT+2LD9JQG2jbZfGIcwAAAKDdygdRGkzo6oweq+2BgeSpcnp6nQZIXkfr6x6pOPDRlRldrfE6Cn50uNfTUvnFdTTAiA+xqGhQFwcxunLmq0pjVEYN0LydBl55gOgrSl5HQY9Bj2XyUwa1ra9Cxe2iXFZd7ZpSVgAAAACrd2rWcZ8+hwwro6tJGgD6iprpipifeuirWwAAAACOjpVficI0Q9Px/P9nnT59ulsCAAAAOFq4EnVIdO+TpukpeGqi7rXSFD9NYZz3nwUDAAAAOBxciTokuj9Kg6V4f5X+1hMDGUABAAAARxdXogAAAACgAVeiAAAAAKABgygAAAAAaMAgCgAAAAAaMIgCAAAAgAYMogAAAACgAYMoAAAAAGjAIAoAAAAAGjCIAgAAAIAGDKIAAAAAoAGDKAAAAABowCAKAAAAABowiAIAAACABgyiAAAAAKABgygAAAAAaMAgCgAAAAAaMIgCAAAAgAYMogAAAACgAYMoAAAAAGjAIAoAAAAAGjCIAgAAAIAGDKIAAAAAoAGDKAAAAABowCAKAAAAABowiNpHT5482Th16tTGly9f+pij5eLFi135FF6+fNnHYlXev3/fta2Og3WjY+PmzZv9q9pRP77v3bt3IOXTZ+egP0PKT/UDAACHY20HUe6gqrN30Jx3FdalY+Ny7u3tdeHWrVvda6wfDRJ07B2FwZrKcRifSQAAgIO0loModdSuXr3avzp4379/75Y7Ozs/ByEOT58+7d476p49e7Zx48aN/hXWmfbj5ubmxoMHD/oYAAAA7Ke1G0R5ipEGLOo4AieZrj59/vx549WrV33M4dLn8tOnT/2rafSZ5uoVAABYJ2s3iFJnUR01LO6o3sOCdrr6xOcBAADgYPFgiUPm+1l0n5VvUHfIN6r7fW3jh0Lkm//1OqahEOleqAsXLnR/a0qf3s9XAXIa1b02+b6wah0/eCAGbRc5HS2d77yrErmdFCq5jNV6fviAQ3VPm9vaYegBAnG9eXWYl+aUdonbKwyVK8v7ZV5ZWyitfEzm/eVyOv7169fd1TS/H48lfz5iUJtkeV9Xx6NVx8XY+lncLtc1i+sqVGWv5Dabso+qelU/mOTPdyW+r1CVO392+HEGAHCi7K2xzc3NvdmAoH91cHZ2dvTTf7ccs7293a036yD2MX/Se1pH9VB9zNvGPJzvUN5KI7eH0sxlcJ5bW1t9zC85jWrd3d3dP8qgbWIeWj/nW9XJaSno/XmUbi63ts31dlvFvJR+3NZtEykdlcn0ftwvLm8uq7aLaTn/at0paY61i9+L3N6x7BXlG9Pz/o3lEdUnx2VKR9vGfZy3czvEcuWya/28/0Tb5nitm/N0e1T7Nq9bHRfV9kO0XiyT2yCn6XaNaVZ5V5xmbDOlE/dbTlvv5f2lcmq9KLe1yhLTmVpuvR/TVllz/gAAHGe/f8OumdwhOCjuVFQhqjqZmTstVQckxzvf2MGxsbzyNlVHSYbSyPEuR5WXuFMaO12W95nXXaYDVpVbeYylOVZGyx1Fy/Fuj9jpFZdLS5uaZmu7eJ/GvKaqyjSv/WRKu3udMVp/6ue42m9D2ysul0+vVd+sqks2tI7bb0qZptR1qIzRlHWq41J5j203tdx6rQAAwEnFdL4lzDop6h3+FhZ1/fr1/q9fZp2UbqpTdufOnf6vX96+fdtN0zt//nwf84vSefPmTf9q2FAaZ8+e7ZY/fvzolpcuXeqWWreawvPhw4du6fUi1XPWCf1ju7t37/Z/Lc7lU9rKo2pTGyujqc3Udtm5c+e6pevw7t27bnnlypVuaZcvX+7/+mVqmtbaLl+/fu3/alfty2W5DTTda5W+ffvW/7XRfUaqJ03mOE9Ju3btWreMXM6PHz92y8rQ56NKb6hM2lbH5pCxMi7KTxMVlUnTeKtpqzK13Ppsad150xkBADiuGEQdYdWAaIieiLaKe1vUUYr3OSjcvn27f/c/sUOlTqXWifeUuCPfUv4W+V6Mhw8f9u/8x4MpD/4qU8uojmLMq8qv1SrSzPe/aD9Mle+JUad6v2hgubu72/3t/KbeuyX53qBl/msDDybOnDnTLfeb7zmMYV5bL1PGfK9b/tyK/guGra2t38qWTSm3Hmiyvb3927G8H4NwAACOKgZRR5g6JS2d49ZHS1eUX7665hCvtGjw4XhdWdEgIHeO96NTpQGAOnQaxDl/deYq8WrFkHllVN2cTw6LDhKXTVPtrMGE6u3txq5uRBpoq+Mb81Snej/puHFeOr7Uua8eVJBpUKB14xVfD8iWEa/M7Ce1q8udwzytZdQPC/oMqn2ch9qtooGU3ndb5h9fppbbT4aMP6gAAHBSMIg6IjRVKFNnt5paU9F66szkQYFeT01naKrdPP4Phj1o8VSkamrUP//803W2Fh2AqC7q5I1t78Fe1aY2VkZTmym/eTwVLw8MPGUwmprmGE8fbP3PdbVftX+HBp0H4fnz591yyiDB0+du3brVx9S0TjVdNcd56qbbL3rx4kW3HJveqWOu+nxU6WmgPGUKbTZWxjGeJpqnlI7RuvoseRAki5Rb7eJjqvXcAQDAujq2gyhP+WqZOnSY1LGO9xf4noXq/qfK/fv3u2UeLPm1Bzpj3CnPaWhwEH+tVjlju3og4vtK1On1FYfYqVKd1GFzR3oRucOsslVT4TzVKJZTf7tdYxkj1c2DIbdp3C+idGKc2y3ev6SrKFW5pqY5phq05X1W8cAzDi6V77wpZsvQcRPLWd2LNjQ4qeKr6XyPHz/u1otTSpVvHByI0tOgQfXNx4XidMy4jSredz6GRH9X7ffo0aMu/7iuqIw5LopljO2m7WL9Ml9hNLVZPraVXr7q5MGXTSm30ta5NRq6XwwAgGNrb83MvvC7J05VYdYJ6teqn5i1KnraVc7bQeUzlUdxs05JH/Mnvad1tK7Xd8jbVU/bymYdmd/SiOUx56k2quQ09DqL7ytU7ex9EEPmtmzZTzlNp5HbJbdnVY9c13gMWXxfoWpTqdbR34ukOa9dcttqPdVlaJ+a972DtvFxFY83xQ/V09y+Y9vl/BSq4zfuh1hnpZW31TK3qevgoNdVvSSvq1CVqZLro/Z2XCy3VHWft38s79+8L6q0YhsqVMfQlM/ElHJXbQgAwElySv/MvgBxSPSr7qwj0/0K3jo9CwAAAMDB454oAAAAAGjAIAoAAAAAGjCIAgAAAIAG3BMFAAAAAA24EgUAAAAADRhEAQAAAEADBlEAAAAA0IBBFAAAAAA0YBAFAAAAAA0YRAEAAABAAwZRAAAAANCAQRQAAAAANGAQtY+ePHmycerUqY0vX770MUfLxYsXu/IpvHz5so9FpH2n9tG+BKJ79+51x8Y68Lno/fv3fcx6u3nz5tq0PQDgeFq7QZQ6AfryjOGgO7hVGRzUsVoHLufe3l4Xbt261b3G0aPjSgNeAOOO+g9XAIDjY60GUfpivHr16sbnz59/dv63t7c3Hj58eKADqe/fv3fLnZ2dn+VwePr0affeUffs2bONGzdu9K8AYL3pxy19F+i8fP78+T4WAID9sVaDKH0xaqASvyAfPHiwceHChY1//vmnjwGOFx3znz596l8BqNy9e3dja2uLq+oTeDYF07gBYHHH4p4oTXXS1SlMw1QXAMeNfmhYl5kAAID1d2weLKGrUevIDy7QL4P6VVB/O+RfCf2+tvFDIXSDdeQbrmOIdC+U20pT+vR+vt8mp1FNlcz3hVXr+P6EGLRd5HS0dL65PL6B32HqfWc5/5y3TKnrEO8Dh6Ffdeetl9tSIdL2eT/LvH0t8ZiJ6+c2ttxm1XqK0z5w2gqxbfP+qsqeOa3cNo6P6buMEtt2KJ9FymNxO4XqGMpimRSqYyq2nUKutyx63PucMmW7vK6C4uZRHYeOjdy+SlNtkOs8pS1lSltJlbfEbce2z3K+VX3zPlLI7efPt5Z5/cq8faJyKJ1YvtiWzi+GSNtrWrzcvn27XKdKo+XcCAAnwt6a+/z5856qsbW11cfsv52dnS5PLcdsb29366mMQ1z+2cBmb3Nzs4/9tW3Mw/kO5a00FCKlmcsw1mY5jWrd3d3dP8qgbWIeWj/nW9XJaSno/czlj/Q6tlUlt72WuW2m1NVxuWy5DK7HvPWcnnmfxjZRGrEMKmOuby67uK1cZ3H6OQ+9zmnqdSy/y1rlrficvyiu2r/VsRZV7SCOVzrmfRvjq30ni5anSk/bxjrrPa1j3ia2v8say1DVKaYj3peRXud9kVX7zOVUiHm6LeI+d3njehW1w9D+z2V03lWZYltV3FaxjMrDaUY5b9cvcr7z6le1g7aN5VBeU9J3ORRyPXIbet24ntog1sv1z9uK2yseb1VbO5+4nlVpeH2lBQD4z+/fAGvIX2TzvoxXyV8yVYj8RTxWtqrTYzne+VZfZGN55W2cZ05nKI0c73JUecnYF7TqE7/8vW5Vf+ejdaKh+Eh1qzoZNrWuWuq14k1pKy7L8UN5RCpjVfcorzOWruLjfnVb5X0xpWxS1VXlmbKt5X1eGSpnta9d9rz/h/ZLNqU8U9Kamp/WifvE5R9S1VmG4qOhMqnOeduhY28oPtI6VRtW2yrfHFd9ripDZdG2uZ5Tyj01X60T91k2ti9yObROlWeVhrar2jXS+9puyuffcrzLpDJkQ2n4uJ36uQeA426tp/NpOsPr16+7J/QdxtOYZl9A+hb/LSzq+vXr/V+/zL5Qu/pld+7c6f/65e3bt900vaodlM6bN2/6V8OG0jh79my3/PHjR7e8dOlSt9S61dSfDx8+dEuvF6mesy/hP7bTTeHZu3fvuuWVK1e6pZ05c6Zb+imJlWvXrnX5VFNwZGpdK2pLtWl27ty5bum6je0T0XoqY7Xvxyyyr91mi8r7S/kM1auieq7a6dOn+7/azSvP0D5eVGy/y5cvd8s8hcqWOe6Hyp2PsbFjT5+ZVT/IpOVYsbEyLrtvvn792v/1J0+N0zlkyNA+Ej31tDpv+9wyRttNeWpq9fkbK/fQuTobS8PH7cePH7slAJx0azuI0sle87n1ZaIn9B1HLR0PdXqGBgwt1GnJc+HVzpHK5U6ovpy1Tpwv7w7KIh2nSi6P5/OP0RO6NMiN9XEHwabUdYg6O3lbPV45mrdPPFCb0rmKVrWvJQ8WdU9JrJPum2ulssU0qg7lfsqdxUXKo2Nj0Y5/zEshU8d7d3e3+9vrVPfpxDQUphz3rXTM5nwOcn+NDWZWQZ/5WDedr+bxIHXshwft5ylpTeH8fNz6x5hFxfucHHy+nmdK3QEA/1nLQZS+bNSh0JfYq1ev+tjjp/WLehW/Hiu/fHXNIf7qqg6m4zWQVWcsdwTdKVhWLEMM8x5lrPe9ruiYiWWaWteK6lxtpxA731P2ybdv3/q/plvFvs402FAHOtZla2urf3caddgkpjHlqsF+ddoWLY+0Hr/qsOuYUpvF/Co6vvy+tlHHNw/yYxoxrPIR3rqKX+Ux7/ha1SB+P+l8pM98rOPUwYSMXfGTlrRaLDuwrGZIKLR8V86rOwBgTQdRHljsR0fysGiKVqYO7dT/EFfr6Us9d/z0emo6Q1Pt5vFjhT0Y8FSQatqH/j8v7b8pv/I7ndy5XIQ6FuIrL4vWVYam62RD+8Q8UKv2/ZhV7OtM2ypNdTgX5f30+PHjbrkKnja1iGXKo4HWlH0ceRrr/fv3u+VUz58/75buuC5z3HsgnOVjTJ8/fQ5bj70xPoZWxeeIoXPjPD52WmcqeBry2LHnKYbVPtLV26kD9cj7ZMrU64rPJ8t8Zsbq/uLFi25ZTdMGgJNo7QZR/gV03pe1HyVbTZM5itQpiI/n9WOJq/ufKu645Q60X0/5/1Pc2chpqKMQf3lWOWO7erDkOfP6pdy/rseOvuqk/eZO4zxOJ09jUpq+wjBE78e83SlwR2NqXStu6/w4ZbVJjPN63pcWy65Bi/Z9bE/9nbeJVrGvs6rDqnK0TOfzPUqxA6ZpnlM6vNov2tePHj3qY/5rt0WmE9oy5XE54n7Q8TR2bHhaZvzxIB8jojRi5zvfQ7jMcV+VW2Wo6qzBpeLzo6u17bzHWeseRn2WfdyqbCrzqlWfj3ltYJ4WF9s6f2Yq+izoaqKOvbit2sTt4vNH3kfe34v+f1XaJ2rX2P4qQ3UcVdReKndsL9H2Ma76bEise1xffytO6ftcAQAn3t4a0ZOEVOShEJ8opL8Vp21WzU82qsJmeCrT7Auni5t9KfYxf9J7Wkfren2HvJ3rH5/mlM06Mr+lEctjzjO2V5TT0Ossvq9QtbP3QQzZ2FOiTHWYl05W7aNqP8yra9w/WdxOYaytY8j7L+/3XAa9rtLOZa/WGTpmnGeMz2VV+t4+tt1QeSS3u9ZzXlPEbXX8OL1YTqeX96ePtxi/THnytgoxbecX5X2p18oztlduZ4VYP9M2eb0pcrlVBsflfKo6av0pcl1Vr1xX0Xv5XOM2yPGVnI/K7LioOi69jxx0PGu9KfnmbXPakveR0s7cxvkc58/WUHwM0djnT6rtcx4S18vlrtLIxw4AnHSn9M/sBIlD4l9wZ52CY/uADAAAAOA4WetHnAMAAADAQWMQBQAAAAANGEQBAAAAQAPuiQIAAACABlyJAgAAAIAGDKIAAAAAoAGDKAAAAABowCAKAAAAABowiAIAAACABgyiAAAAAKABgygAAAAAaMAgCgAAAAAaMIjaR0+ePNk4derUxpcvX/oYHLSLFy9u3Lx5s3+FdcdnajXcju/fv+9jAABAi7UbROlLX1/+MahDcJCqMjjcu3evX2s1nNeq0z2pFm1PDca0HaZRW6nNgFb60UPHz34NlKek//Lly24dLQEAqKzVIEpfelevXt34/Pnzxt7eXhe2t7c3Hj58eKADqe/fv3fLnZ2dn+VwePr0afceAGA93b59u/tuuXXrVh8DAMDv1moQdf78+W6goqU9ePCgW/7zzz/d8ri5cuVK8+BMg039inrQV+jWwSLtKZ8+feq2i/SL9km+2uJf66spYWortVl00tsL07x69eqP8/wqzUtfV6k3Nzd/frcAAFA5FvdEXbhwof8LAIDF6QcWDbQAABiz9oMoXXXR9L4bN270MevHv+g7xHn4Q1eVPK/fwRTvQaWmOfr9OP/facYQ3xeXSfExr3glwXEKQ1e94joKU+8x8D1ICtXVi6oOU+5z8nZVeXN68QpLvIritnn9+nV37Hn9mGZVvnzFJrax66t8bEoalZyOKT62kdNXOVR256Gg98ZoHU15Ek2x1eu4n/S3yzCvvfy+lpHjp9Q5HqMK1bGgeOUZ61rVc6g8Eo+DitPOZXZ8zE9ldFouj8LQcTyljpV8HI1tl9dVqNoolyWbl47qrXK4rRXcZorX60ivta7W8foKPoYypR/Xi/uySl9iWartxPVSfDyOFKp2AgAcY3trbjZg0ByrvVnnrI/Zfzs7O12eWo7Z3t6eWzantbu728d0c8b6v/a6bfVaadnm5mZXb1MaW1tb/at6G1M++T2XM5bB5VJwPZ1ubnNvH9vD+UQqo+JiPhWlrzqa0o/lrergssXtJKdVtY3jYhsqj9jGuc2lihO1Q7Wu8nCbSdXGNjWNitaJdTbFV8dJjnc+87j81f5U2XMZ9HqovZRO1QY5fR9rsQ3yOt4u7mNRnELVNlm1ntsrpxu5fLlNqnL78xDjtV2VR05zqI6ZyxzrEvONaVZ5V/XJ+1FlyZ+dnI7WiWXQ9lqnOh5cvsjr5nxzPqK4mJfbwKr0q3pW6TsthVhn5ZfTBAAcb2t31o9fYg7ugBwUf7lWIfIX81j5vM4Q1zd+kasjEb/As2ob07axg2E53nXUMnJnIddJcWNlkrFyRfPWGaqDyxw7QnndqgxVpypTGkorquKGuGMZ29PlndduVqVR0TpV++S83BY5/6n5VO1t1T4aai+nk/Or0td+U1w+/rIqf22nMIWPiZjPlLy9Tm6TatsqD5l6XFV1zJxHpu1yOYfSy/F6nY+ZaEr59X5Vd6nKrNdVmoqL8VP2UU5f6+q1ts2G1s31n/qZAQAcH2s3nc8Pl3CYfWl109c8deggKe9YFoVWly9f7paaDjKVpi4+e/Zs8nQe03STWSdg4/r1633ML5r+kh8EIGfOnOn/+o9vxq5uyp46neXr16/9X7VZJ2zwiYtjdbh06VK3/PDhQ7ec6s2bN12eB+Hbt2/9X7/cuXOn/2uaKo1lnDt3rv/reKmO51nnt/9rnPfJv//+2y1FD6/RcbLqBx4sk15Vx2jo2M6fn5Zzw7zzj6ZtTple3dqWVZqKU7l97nn79m33fdCS7sePH7ulz8XRtWvXumWennlcPzMAgOnW/p4oPYJ2e3u7++LO89fXgZ4Wt7u72/3tufXz6qEbn9UZVEfG27SI90o5qP1WLd+/oM7NFLqp2wMpbef7RuTHjx/d8uzZs91yFdQJW3XHON9fofuGWq0ijWWserC2n2I7KWifLkOfSx2vfuqnBxl3797tXu+3qvyrrmNlyrlh7PzjwcxBDTJyPhrsxfPFFD7OT58+3S2XsU6fGQDAco7F0/mqXxDXiR+7raCOm27Yz798ZurIaH0PwFo6Dhp0Or8Y5v2q3UIDAHX6Y14tnT4/hlhX+7RdvtK46s6KO3+roCto2ofxSqX301TLpDF1sHpU5KudLbTf1InXoNvtpLCKNvj777+7Y0+fRV+Rmvf/Bq1ycG/7Wcds6rlh3vln3tXmVXE+8UeQRc9j/oEGAIApjsUgytO3lumMHRXPnz/vlv4PfefRAEy/Ck8ZoKijoY6Xprzst3fv3nXLZf+vFXVa1Xl0x0j1laoO7ui2DqqV/iqvxHlK0TL/Uecq0ojmDcqPIh9DYzwV69GjR91ylXzsvnjxorsiNXUqYGWZz9wyddTgpjq2c3kWPTfk84/T0TTCVavSzNMV8/S+KXy+qKYB+3zs8w4AALZWgyj9Op9/8VTnUFNQ9EUav+j8GNujPsVP9YkdXH+R+/6eTOvmNsgdCf8qW3WIHj9+3HWq8v1Gaq/qHqRFeZpNrNuU+yS0v/JVJ5U3buvpm7G8Pg7UoWvt8LhzGu/xUCcst3Omdq46bFV861S8ZdLQFRS1j9tey/2YCugfLabegzbUXtpf6njHQYL2haaLzVOVQdsqn1XwtDWlN+XeNQ969TkzHc/VQGaqZepYHdtD5Zlybphy/lE6Klv+fC5736rSjHkrfcXFKZb379/vlrG+EqccZjr+VH6dP/yZEaWv9tDVYAAA/rC3ZmZfdt1TkGKYdar7d3+ZdX6692ZfgH3M6uz2T2KqgspnKpfiZl/0fcyf9F5OQ+mb3491dLoOsw5o/84vuYxRVf7chmo3xceyiNs1U1ysu3hdB6Wpsip+TN4upytVHap9rfzi9lV7SpVe3G9Ko2pnxXn9mL/Wj2k5/ZjvUBvblDSG5DaU3Pbz2mJKPlrHecR2zu1uQ+0ljldQOV2O2D7OL+4bt2PcViHvL7/XwmXIaY1xuzqozC5jLLfKorjM+z2aWseK6+Cg8lRtK3ldrx/Ffa5QlSGXVyHSNtXxIVW76LXic7q5/JLbP6831O65Xgpxf4nTzm3idsvxAIDj65T+mZ38AQCJrprNOvzdFSndB4TDoStJ7AMAwFFyLO6JAoD94PvsWh9DDwAAjjcGUQAwwI8458ECAAAgYhAFAAVN5fv8+XM3jQwAACDinigAAAAAaMCVKAAAAABowCAKAAAAABowiAIAAACABgyiAAAAAKABgygAAAAAaMAgCgAAAAAaMIgCAAAAgAYMogAAAACgAYOoffTkyZONU6dObXz58qWPOVouXrzYlU/h5cuXfSz2g9r3uLTzzZs3u2PnsKkcalPU1DZqo0X43PX+/fs+BgAARGs9iHLH9KC/7JWX883h3r17/VpHm8u5t7fXhVu3bnWvjzqVW+1M5+53PiYXPf68PYPp42vZYwQAAPyy1oOoR48e9X8drO/fv3fLnZ2dn4MQh6dPn3bvHXXPnj3buHHjRv8KJ93Vq1c3tra21mYwDQAAcJjWdhCl6SafP3/uBjI4OTRI1WD1ypUrfUwbX8k6btQeiw7i1SYXLlxYmx8AVuGoTEk8SMscIwAA4HdrO4h6+PDhxvb2dv8KLY7qPVo4HOpUf/r0qX8FAACAedZyEOVfzh88eNDHrC8NaHyPT7zHSyHfn+L3tY0fCpFvHPfN9jFEbjvRlD69n3+Rz2noql/m+yvG1vHN6TFou8jpaOl8x64QOM04ENR2Cm5Lh1gm56M6i9fx/SHeVm3sq1UK0ZT6WFxHZas4n1gXcXyWj4/YTi5/rPO84yW3l8JQfaaI7eaQ6ya5Hafkmeuu10N8HDl4H4vTef36dXcl2+vEdpOchkIlrzeP9oPyym0fyxjlNp26XtXuzjPXdWpZJK87tH5LmgAArKW9NTPr+Oyp2Ds7O91rLfV6d3e3e30QnKfLMGR7e7tbT2Ue4vrMBjZ7m5ubfeyvbWMezncob6WhECnNXAbnubW11cf8ktOo1lVb5zJom5iH1s/5VnVyWgp6f56qTV1HBXNb5XZyuTLXU6Fql6n1EcXFNvR6ed0qTanK6DTica713GYuv1+L20Ahl1GvpxwrFa03tG3kesQyux7OQ8ucVuZ6xLppG8XlPHN+1bZS1cEUP1S/2DY5DeWlOo9x2rHc/gzkbas21WvFR7mdfSzkdR0f28JxcT2npxDb0uWct32Vj96PaQEAsO5+/4ZeA/qCzx2X/GW/35xnFSJ1IhSnTsWQqhNiOd75Vh21sbzyNs4zpzOURo53Oaq8xJ0trZepPnH/ed2q/pWqjNpWcZnyyem6g5i5TWLZrKU+Q23ofGMajhtaN9LrvL8il1/529jxUhmrZ5Tr7Hyqz2DeBypL1cZjchqmPBXmqbbPdbCh/SeKj22p7ae2rWmbqswqT4wfatMcX+138b6M9a7WVfkVl7k8Mf+h/ZDL5LzjtgAAHDdrNZ1P0340Hev58+d9zOGadR7U+/gtLOr69ev9X7/MOizdtKPszp07/V+/vH37tpumd/78+T7mF6Xz5s2b/tWwoTTOnj3bLX/8+NEtL1261C21bjVt6MOHD93S60Wq56wz98d2d+/e7f9ajMqyCn///Xf/1y8t9Rlqw2vXrvV/tfN0t0XTqI6XMd++fev/mubdu3fdsnrYh54AGY9h1UHtNTZlM1K7av2hz8dUU+/5avkcqW46H7VOVavK7fp5Xw+16ZkzZ7qlnxD68ePHbnn58uVuaVMfvKL6jJXHxvaDPxf+nDhvPfFxmemhAAAcZWs1iHr8+HH3hT+1g7Duqo7cEHUSp3ZMx6ijFO9lULh9+3b/7n9ULq0n6nBqnXifxdevX7tlS/n3yyoemHDY9XGH2R3oVcn3GanTuwh1sKcOYvUIdf34EI+zVXe0Y50UfKxO0fI50gM5tra2ft5bqLAo/1CRxXooLLqPluUfUIbKmfkHJZVX5eaeKADAcbNWgyj9oq0QOxXu4PvL+jhp6ZzKKgYMyi9fXXOIg1cNKByvga2elphv9vfVmeNi1fU5d+5c/9c0Hkytgga9+uzEq6m7u7v9u+1aBioaSDlP0Wd3FW2rNHQO0PHo9BVaPkPS8jnSQEp5uO0W/SHDV/9Onz7dLS3WI4bD+v+8Wq5SuqweaOYHWgAAsM7WahAVOxEO6gSKOjF6va40jSjTgHHqf4ir9dSRzZ1RvZ6aTp6aNpX/3xl3sDztzFONon/++afr1B6Fq1RTtdRHy6oNPT1rijz10tOlWtKYx9PWVtEZz1PRInWeq+li5s+vr3Rkbtehz0fk/bPMf8K96OdIPzBosDBlMJnLLXkaoY+5eVfpfHXSU+ls6tU9DfqGyhP5B5RqP/z777/dMk8pNJ8ffEUXAIDjYC0fcT6Fpo/oV+mxRyEfJerIxMdPe/rL1PtZ7t+/3y1zJ8+v3ZEZ40fG5zTUIYu/sKucsV3zfRnqmKtDqCsdsTOqOqmTeZj3tPnqT8sUspb6eD/E6Uv6W4OJ7K+//uqW//vf/7qlqJ1zR1wda/+aH8utX/YX/XW/GuwtOlXMx03e3sdzPPb0mYx5jt1PZdvb293nIx5z1VXnakDhfZQNDXanfo7yZ0KG7i+qxPKrXqpfvB/Px1xuU5U3bqt285Vg10Vlm7ovPeCMx6v2WzWw8n6Ix5zyUt46Pr0PlVZeRxa9pw8AgCNpb83tDDzFaval3sXr/VVTXkq7CrMOTb/W+JO+TO9pHa3r9R3ydkN1jWYdr9/SiOUx56k2quQ09DqL7ytU7ex9EEPmtpy6n6o2VR2rMiquitf6Lo/Sk7gfhkypjzgtB23nuFzPfCzpfdcxy/nHfVuVf97xEtvB6+U0KkPtndOr1sn1VYj7cojbxEHpVO3kOjuozRSGjg+vl/dLfE8htrXlMlV5ZFpHaVX7vZLbVKGS13NcLPfQMZ7Lovcdp2WU11Woyp7bL+cJAMC6O6V/Zl9yOCT69XjW4eh+5T0O/3kwgGG6eqXw6tWrPgYAAKyjYzudDwAAAAD2A4MoAAAAAGjAIAoAAAAAGnBPFAAAAAA04EoUAAAAADRgEAUAAAAADRhEAQAAAEADBlEAAAAA0IBBFAAAAAA0YBAFAAAAAA0YRAEAAABAAwZRAAAAANCAQdQ+evLkycapU6c2vnz50sfgoN27d6/bB4t4//59t63241Gh8qhOh03luHnzZv8KAADgZFm7QdTFixe7DlwOB9mxdOe6Cqsuh/M6Ch3n40LtqeMIAAAAWMTaDaI+f/68sbm5ubG3t/dbePr0ab/G/vv+/Xu33NnZOdRyAAAAADh4TOc74q5cudI8ONP0QV1tOUrT0I4SteenT5/6VzhoXFkFAADrjkEUAAAAADRgEHUEvHz5svt13kGvbeiqkm7qj9uY4i9cuND9/fDhw5/vx4dbOM0Y8sMvXCbFx7zivUSOUxi66hXXUYh1qzivrGqH6t60XI+K6lA9FCHebzd2z9SUfHWlRWm43Aqx7HmfKywjll1hqPxDx80Y1SVuM9bGcT2FuL+djjx79uznOmrPyPEO1b6SKesAAADsh7UcRL1+/fq3DtQ6Tw1SJ/P27dsbu7u7P++r0usx6jBqOprX171ZboNXr151943J9vb2z3XOnz/fxanDqkFWfE9/Ky53ZkXxd+/e7dZTugrusOtvb68BW+wwe6DhPBS2tra6ulX5mPKSvM6///7bLf/6669uqQHJ48ePf0tfZfUAspXq5PooKO2rV6/27/7Skq/SU7zTffDgQRevffXu3bvf0pChgc88amdtm9NTfDR23AzR+xrw+Ph0nbIp+1tTUhUves/racqqeMAZ31PQ5z23TV5Px/e8AToAAMDKzDoga23WEVSvbG9zc7OP2X/OswrRbHDRxc06nn3Mn7zOEG2r97WezTqxe7MOZP/qT9U2pm2rtsrxrqOWkdap6qS4sTLJWLmiKi3lO28fu8yzDn8fs9elo7hoqK5xO/G+mVfesXxz+w1xXmPHimid2DZV/WSR4yYb2l+qp+Ln7Y+h7RVXlUPpqYyZ83NbOt2pbQsAALBqaz+d79atW92VEP1aPXaFYz/MOnHqvf4WWl2+fLlb5qsGY27cuNFdHWi9Aqdf+mcd0I3r16/3Mb/ol/7qYQtnzpzp//qPr2h5GY1N84q+fv3a/1WbdbC7+pnS1f71Vap5/PTEqXRVSHxFxLxvpqry1fHZ4sePH/1f07x586Z7WmWm/TMbkGy8ffu2j2k/bj5+/Ngtczvkdppn3v427WOVMXN+3k+um65ycfUJAAAchmNxT5Q7ea2d56NAHcTd3d3ubw2kFOZ1DDUtygMNb9Mi3ivloA7sqnmKl4M6vlPcuXOnW3pQ7M58HpBoal1Mf940yFVZRb4ayMQ0tE8WoUFxNaCtLHvczLPo/hYPwM+dO9ct59GA3wMp5cU9UQAA4CAdi0HUOg6eIg2kfCXLHcN5V9V8f4kHYC330+jKnfOLYZWP/dZAUPcUxbzU4Z9C7aF2ePHiRff6+fPnXec/0iBEAw/V3+nryuB+W0W+6vBrIKP2cBpqp0VNvQIoyxw3Y5bZ39HUq1bi+7t8Jbr1yiwAAMCijsUgytN8Ll261C3XmQYMMnVgqAGHBhhTOqzVFK/94n3ihym0+vvvv7upaqIOsq9OmaexearXMnz1Iw9cP3z40P/1yyryVX20z6ZeQRqjslRXEVUXHRPV1E2Zctx4Kmduh2qAv+z+9rHpfR75yuy1a9e6ZaY8tW3LYBIAAGAZazWI0jSq/GuzOlj6VV+/RsdOqadLzZsad9h0JSB2St1hHRoQat189SDfF+N2qAZLerKcOt1qy0jtleOWUQ1MqvtdhugpfOrgq1zqIOdBi9ogDh7UgV50Op87/vGeK7VFNcVuFfnmwYLaaNHpfI8ePeqWeTqbrgopH9dtynGTqc31vsrmAYrSqZ5a2LK/hwZLOja9z83tq3J4Omc+D2idsQEjAADAyu2tGRU5h1kHqn/3l63Gp6O12O2fFlaFWWevX2vaE9f0Xk5D6ZvfV1rmdB1mndL+nV9yGaOq/DF9UbspPpZF3K6Z4mLdxes6KE2VVfFTKD1tl8tmSium73rFfV6VV9vlskpMy+/r75z/ovlGcXsFp5HbO9M6VfvFtIbWmXLcVLwfHByX29B1dhja3/mYj5+P6vNQ7f9cpqq+AAAA++WU/pl1QgAAAAAAExyLe6IAAAAA4KAwiAIAAACABgyiAAAAAKABgygAAAAAaMAgCgAAAAAaMIgCAAAAgAYMogAAAACgAYMoAAAAAGjAIAoAAAAAGjCIAgAAAIAGDKIAAAAAoAGDKAAAAABowCAKAHBo7t27t3Hq1Kn+1cH68uVLl7eDXuNwHebxACzK5xIdvzg5GERhaS9fvvytI5K/AN+/f8/JBdhH/ozps7isixcv/vEZPq5u3LixsbW1tbG3t9eF8+fP9+8AB0efN33uDpo7/jdv3uxjDp/7E0+ePOljYCfp3LwuGERhKTrR3b59e2NnZ+dnR0R/H6WTMnDcXb16tRsM3Lp1q4/BPBp4fv78eePatWt9DAAA0zGIwlL++eefjc3Nzd86b/r71atX/auNjStXrnSDq6dPn/YxWAX9IsXVvaProKYlKZ8LFy6s7PP16dOn7vOK5a3yCiGOL33e9Lk7aLryqrzj9/VhU/9BZXrw4EEf08ZXsvTZO244Nx89DKKwFP2SC+DwaPB0GB2wdff9+/f+LwAA2jGIWnOeI+tw0POIdRXq9evXo7+0et71lLL5l9sYKrHeU+eS+8qAQ3UVR9MQ4zoKmerheK/jtPwrmOrsMuapjTmPoXYZKq/j5dmzZz/fz7+8Od5h6hRL18Gh2rdDZRvjfau2cRs65LKPtbHlY78qZ3U8Oagc4rr4tcV2NrWhgo9ph7gPnaf2jXidWP68vUJug3nH0pQ0hsRt8nGh11M+U1ovplOJ7yvkvMbkY0Rhav3yMawQqX6ahixa6v18fOXth/IeOg4Vr2mW4jwUIh9jDlPbx8dYDPn4HZLbZmhfx3Wqci1adhlqszF5m+q8metWpZvLnff7mFyGobbL8mc156l0prRf3u9qA9c57n+lV5Wtyqcqj2jdmFduS9dJ8bFNo/wZbqljzM/pSCxXVRd/rvXZ0+vYDvpbZXWbKcTPdfW5qo4zUd5xvYrzyW3n+Ji3VOf0uF+VZ6zPlH0QuR1zvo6PeSk95+V0Fapj5UTbw1r6/Pmzrul2S9ve3u7idnZ2+pj953I4VLyOyjdG5c7l39ra6uJiPS9cuLA3G7z1r/6r97y0tX4un9LZ3d3tX/33WiHydlU7K8TtxXVQqPZDzsNto3pGU8pbbSdDaSou1y9z+XM+UVU2vY77pKI0XYZYNu/jmOdYG0vOz2nH48BxcT/k9hfnH/exOD5y3WO82yzv72p70Xq5DE43lsHpVmlPTaOidXL7x/SVTk47y+to+5hmyzFYtZPjYl18TOS2yLTtlHyVTpVeVfahdRWntjBva9UxaCpPjPe6ueyZ2iHmKUor5jvEbRg/Uz5uolwO/R3LumjZReuNtZnSiK/9/rxjQX8rLtYtpiNDdc3tWanWm9LuLn88NymdWE6lM68MVRu7PgqxfZSeQlblk9MUxcX1nHesg+tVbS/ej1PKFTmvuG+9vxXcbs4/510dB6a89V5VBm8X863aXNzurpvXy+tWaUpVRqcR21jrxf2gv2PZ5+2DzO2Y28bxcV95/8X4qown3finH2tHB/iUD9Oq+eTkEPmDPu+DN1T2HD8lrcgf/Hwii6qTiOX8vW5VBp8cq3oM5ZHjp5RXhvLJJ1praYchrl8+CQ/FR84/l9nHx9Q21np6L8vxep3bodoH3i7vlyoff3lmyid+2clQOSvVvnGbKp0ppuxft/XYOkPHT6T3x8rVcgzmdhqrx5SyVar97vbN+QzlkeOrNLMp+yRatH6ui/Ib4n2fP1M5fsoxUplS9iltNvVzo3XiMei0hwy10ZS2GyrTUJtGPgbG0le7qf3GDLWv4pR+bFPFDa2b89G2sR2H6prjXfcqH9c5H0ND8VG1jvdtbsOqrGP7s2orU3xsB8vH7FAdnG9Mw3FD68YyTvn85HXG9kFlqB1zHcVtm9tqSjlPEqbzHUPxkuxB8Q2Psw9Y91qXfVv48nL1pKzZB/a3OimPhw8fDl5mzz58+NAtL1261C0rb9++7fKpHnGs/N68edO/+uWvv/7q//rTnTt3+r9+Gcrj7Nmz3fLHjx/dckp5x2h6pR7dnOkBH/Lu3btuWbl8+XK3HNp/3tZp2ZkzZ7rllPtM8j5We6hdprax1vNxFp07d65b7vfxr7Lul2/fvvV//VIdS2OqNMxtrSkveYpJCx1fmq44NLVjmWNw7Pi/fv16dx/movvYn7ExQ2VX2ylvGztnLCPm0Wrs8/fx48du6c+4ufxfv37tlsscI/PKvuo2i8fBfp67hs45bivVa4jz0/SyPI2qxdBxWcUto/X8+vfff/d//TL0GT59+nS3HDtHjfH2y1Dd8vE31v/wceXPz1DdFv2+tqH9O0W1D1ZlVZ/V44pB1BrTyczzVB0Om57ys7293f29SCct3jvgkL+YlYdOhBpI6f04R7gSOwdDNAicl84qqC65fp7DbVPKO8RfcP7Ca6Uv/N3d3e5vl6/aj7H8Cr73Y1Gtba8vnFwGHQ+RBh9q71h+rVN9ia5Cy8MdVKZY9kXab9E0VE53krXdlPsUMj3MYmtr67d78mzZY3CZ49/i/QEK+diYJ9bLwfe42SrOGdo+5qHjegrfw+CQzyFjfK9IDNmUY2SRsi/aZlO+6/bz3KXzyDLHo35gFLf9Ub+vZMr5dQodQzENvd4PeWDXygNoD6gP2rLnzIM278eSk4RB1JrSLyc6IakjoxO0w1HgX24W+bVpJ/x/UzHkR7DqteK1vj7QUzqC8060LZ3gRWmf5bo55F9Il/licEd0ESqHy+SOVP4FNZY7hkX/n6LWzpUGQlX+Cu7s+BdDdwQVtF0+lg76i0sdYJUpHuvu/E21bBpqb22jHzzUYVqkU6eBVMw3779ljkFZ9PjXuUADHp0X3Db+YWeqfF6NIVrmnKHjUWLaOj7n0b5Sh1bt7u10HEwVt4shPyJ/7BhZtOzS2mYt33X7ee5atqPufPzjw9SZFItYZKAaTTm/ThE/gzEs+vjy/bbqJ3a2DsqWPWfO41kvWB0GUWvKHcT79+93y6PEJ6I8bWSMBxBj03wq+uLTCX/si9mX6H05vqLL6Drh5y9KvVYHYhVTJqZORZpS3iH6glPnoZoa519lqykLQ54/f94tvU+9be6YtMj7WO2hdlH7TKF9MeVXb/0fZuoAxi/vPIAaU7XhKnhK06IDTllFGqLOjNJZpoOoz646htqHsuwxOHb8a58q7bGOnI4NlaelsxfpfDJl3w+dM6bw5+fx48fdsoWnW+UfXebxdCN/d0yVj5Flyr5Imy36XbfKc5fauzrnKK2Wc5d4sNraYR76TE09T/k8O8/U8+uYPAXuqPNno+p/vHjxolt6HQ9Ect1a6przGTtnHoSx6aiYY9axwBraKW5YnJ3ouzgtbbe/CTLGrYrTnp2Y+5hfNzrG/Bw369D2MTW9r/VinURpOU7LXBdtM+s09a9qsxNUt16kdFQHcRm1XlRt53LGepv3i9PNqjy07pR8Y3lF6+TtxGWIbVLtl4rSi3lUda3K5vTHKF2toxDLpjLlPMbaeKgu+dhwOXPIx4rTi/Fx20jpV22uuBzvOuRjQfkoPtbNeWkbGzuWpqaR6b1YT9c9bjNUR1N58vt6Hdu+5Rh0XSKlp7hYP69XtUekbWP54nEXt3UZtYy8fiy7DLVdro/izOvktKp4pa+4uH1F+VV5KOS6ZENtqPZy3LxjZJmye9uxNnMZrdpPboOYTqyDuEzK03xcRS7TGB8TVbnjsVZRfdx24rRifZRGTjtzO8S0XB+FWM/cZq6jQlWHan/n9ZRWjPN6sTyR1tX7sVxSxUVV+1T7UnysxHhvX5VrrJ2dVszX7ZjTyseR11OIbSlaV8Gcj0I8Xqu89H4sr/6Oac3bBxWtn9N0eWI7upyZ18d/aIk15hOLg17rAI8fEJ9QYtwqxZNHLEfU8kGv0lNcFE9CClPr5hOfQ1WevE6Vtts9n9DF5Y8nxyznEU+K0bzyul0dYnnyewpT2r/arqqL2iWvN4+PRbVR3ofZWBtb3F4h7yttm9vW9cvrumwOKqPLEGm7an8proqP7RTbP7ef84/rzDuWpqRRydvlL/2hOkZuG4dq/anH4NCXdT5GqnWG5O3cNrEt3b5aZlXZcztJtV7eX85HIbaTy+Sgdne7zqN04rZOq6pLlvedt4/mHSPLlH1em1XHQy6zXitPBZuyLyTXTWGqvF11TFTy/lL5I70f6zIkHksKeu32Uv2j3GZ6P7eZ6L2qHnFbhbyd2zvXJXLZYsjlzKpj2XXJ206peyz3vHbO7atQHUMS96n+dty8ttT7rmNOu8o/Utmdl0zZB5m3cdC2zje2o9s2Uxmq+JPqlP6ZNQgA7CtNfdGN1bMT9tLT0KbQfRtVXrq3Q/ckcOoDsO58Ppt1gBeewgpgMdwTBeDYGbvvQfcGXLiwf48pBwAAxx+DKADHjv8/kUePHnVL04MNdNP0fv6/GgAA4PhjEAXg2NG0Fk3X0xQXP95cQY883t3dPbKP2AUAAOuBe6IAAAAAoAFXogAAAACgAYMoAAAAAGjAIAoAAAAAGjCIAgAAAIAGDKIAAAAAoAGDKAAAAABowCAKAAAAABowiAIAAACABgyigIkuXrzYhVV68uTJxqlTp7pw8+bNPnY1vnz50qWrPAAAALA6DKKAQ/L+/fuNhw8fbuzu7m7s7e1tvHr1qn8HAAAARxmDKOCQvHjxolteuXKlWwIAAGA9MIgCAAAAgAYMooBDonuWAAAAsH4YRGEpfjCC+AEJ9+7d616L7vtxvEMePMQ09OAGrzf0oAXFe50YYr6i13mdqQOX+MAHBdVjSF533gMi3CavX7/uXnu7mMfLly9/xisMPdBi0fWqdpiyrwAAAMAgCiuiDrcfkPD06dMuToOLx48fd3EOFy5c6EJFaTx//rxb7/Pnz90gIw+MNED59OnTz/R2dna6eC2dr2i9Z8+e/VxPYWtrq8t7bEAkKrce+KA0ve3Vq1e7MmUqn9bVe15X5Rt7ip/ugdJ6m5ub3Wtv53ujlP/t27d/tqeCB5dRtd6NGze6+Ejle/fu3c91lG/eB637CgAA4ESbdZaAhW1vb+/pMNJyitnApFt/1vHvY36lEeNkNujp4m02UOleK41IcVrXqjxsNijYmw0i+le1nJ44b21vSr8qz1B8pnJovcj55Pas4vU6lzPyNnmdqeUba0cAAICTjCtRWIm//vqr/2ua79+/93/9cvr06f6v5eiqi1RPvdOVGk+jq/gq1bVr17qlnT9//o+rMh8+fOiWly5d6pbmenz79q1btvj48WO3vHz5crc05S9fv37tlkPlrJw7d67/azHVvgIAADjJGERhX2mamO+vUdD0s1a+L0cDCU1Fe/ToUfdaPHXtzp073VK0/kFOQ1NesY6ryFvTB2OaCpEHNmfOnOmWi8iDvFXsKwAAgJOAQRT2je8X2g337Oz09zAtSleRPn/+/LOj7/TzVSetc1CUl+sXw4MHD/o12sU2iyHe9yWrukq0H/sKAADguGIQhX3z5s2b7srRqv4zWT1hTuKgQiGnf/369W5ZPUBCD5tQmYZ4Kp6nBJqubuWBmafceQreKnhqoKcKDvF6uZyLWvW+AgAAOM4YRGHf6Ily8f4jDURWMUUsTjlziI/i9hUgTYmL/OjxfDUn0pTBra2tbrDlQdjQ9EANODTwUJ1i/pLLNJXz11WhPAhUezquKqdoSp6nOLbYr30FAABwHDGIwr559erVb/cL6W9NF1vUrVu3uoGDppnFK1GKU9pxMKF4DXCct4Ifje6HNAzRIEtp+r4kpa2rUIrLVEfnH/PS+vPyGaL8t7e3/7gvSo9/j1eKcjkV3r59u9A0wlXvKwAAgOPs1KxTqccYA0eerrD8888/3WAo8pUiDTyWuQ8JAAAAmIIrUVgbuspS+fHjR7c8e/ZstwQAAAD2E4MorA1Nj9M0OT9gwu7evdstNd0PAAAA2G8MorA2fK+QHnjge3cU9FAEZqUCAADgoHBPFAAAAAA04EoUAAAAADRgEAUAAAAADRhEAQAAAEADBlEAAAAA0IBBFAAAAAA0YBAFAAAAAA0YRAEAAABAAwZRAAAAANCAQdQaO3Xq1Ma9e/f6V0fbkydPuvJ++fKljzlaLl682JVP4eXLl30s9oPal3Y+OO/fvz8S7e1y6FywbnzM7jedz5XPUT1PVlTemzdv9q+Wp7R0Pl4lldFBx+EqHfXvNpxMR+W8f9wxiMJS/EGtwroM8FzOvb29Lty6dat7fdS5w7XqTsG68zG56PHHlw+yR48ebWxtbfWvNroOs46RVQ4ehvgHHixG+2hzc/Pn+f3KlSv9OziKlj1/H3XLfm/vx48MWByDKCzl+/fv3XJnZ+fnl5TD06dPu/eOumfPnm3cuHGjf4WT7urVq12HeV0G09hf6ux8/vx5486dO30M1oUGu69fv964fv16HwOsL1311PH85s2bPgaHjUEUsKY0SF3ml1X/InbcqD0WHcSrTS5cuLA2PwCcFL7ycxhTAV+8eNEt4+fs/Pnz3TH26tWrPmb/fPr0qcsLOAmWOX8fJUNX0xb93tY58OHDh90P1jr/4GhgEIUTjXnsiPQFp04rYPrVV9PBsH5+/PjR/wWsN/9wwwyJo4VB1DHgOcQO63jjtvjXZtXHN3I75PtT/L628T0D+f4EvY5pKES+6iCa0qf381zjnEbVtlPaX3FxHYU8J9rpaOl8x+Y+O804ENR2Cm5Lh1gm56M6i9fxr2beVm3sq1UK0ZT6WFxHZas4n1gXcXyWj4/YTi5/rPO84yW3l8JQfTK3Zwwx7yGxTN7fCkP7vCqj99micnpD+2fKOpnbWWHsOK7aT3U15efPqX6JrdaZ2jZ5vXntp/U1la+aDpa3b92fud5Dx4zSqtKIeVTb58+IQqbyO+243lC7KD6uF/dBltedt/488XhSmPcZU/toaq74uFFclNNUm1XmtbXF9XJelttlaL1K3s7Hcyy3089t7fis+vxNMeX4VVxcZ0pdXaeYntORuM+cnrdxyPvR76vM+XNR7fN55ySJZfI6auPYzu5XKChN8XYxPdVJ28WyeX1xmg4tx0yW94k//1jQbGSLNaXdpzDrYPQxe3s7Oztd3Pb2dh+zv5yflmNUHq0365D0MX/Se67P5uZmH/tr25iH8x3KW2nEdhGlmcvgPLe2tvqYX3Ia1bq7u7t/lEHbxDy0fs63qpPTUpiy/6o2dR0VzG2V28nlylxPhapdptZHFBfb0Ovldas0pSqj01B7mdZzm7n8fi1uA4VcRr2ecqxUnG5M0/uxartoqEx6HY9/cZqxTq5nXjerjlFvm8uouNwWeT39HdOqKA1tZ7GusQ76O5c/byvVPrWpbVOloffjcZRVbWeKj+0S6xjX1+uh/Rm31zreXmU1xed9otfVfvJ2SjemLXo/b6N1cp5Ve4rXdXu5PRVy/VyXKG8/JNfX+cQ2UdkUN+84HKqLKD6We2jdeW3tsijktsn7QOnEMjvPvF5F68VyxHxjmm7n2F7i+MjH7JTtI5c7bqeyxW2qdKq2zNx2cT9UbewyKD0tzfl6PXGaWjfuc6cb66G4fDznPKQqU6R4lSXzdrldFFe1jeJi+VzvKu3I68VtVS/lb26XXF9M9/tRgbUy9qGr4veDPqAqRxWi6sSRjX2gc7zznXqSsryN88zpDKWR412OKi+pTmSm+sT95HWnntCqMmpbxWXKJ6erOlfruk2qY6ilPkNt6HxjGo4bWjfS67y/Ipdf+dvY8VIZq2c0lOZQ3SOXKedRbVvtP3EaKu+Qqi55X1le122ZyzhmqEyuV9wvlWr7ap/a1LZx3XK5xjiNqv6Kj/t+aN1qfw61v+LmrZvrNVVVDn++YpzkPIfa320a23+sfEP7Khpqm0x5zPs8u3y53K53luOntLXbNa8zlEc2pb7VvhPnEY85xw2tG+m14rOheHO75DzM7R7LJUPxUXWsDbWx2k3xUbW946pjbyg+qo4DlynmE+m9qg29XWw712OoPbMpx8yUtpbquMB0TOdbc9VT5RQ3+zD+cfl5P80+qPoU/hYWVU2dmZ00uqfSZNUTs96+fdtN/6luvlQ6U55sM5TG2bNnu6Xn2l+6dKlbat2qvT98+NAtvV6kelb76e7du/1fi1FZVuHvv//u//qlpT5DbXjt2rX+r3ae4rBoGq1PWPv27Vv/15/GynL58uVu+fHjx2455syZM/1fNbWn2rX6XHg/eL9Mpc9Sde7wzc7v3r3rltp32oe3b98up71UvG2+cdptMpWf/DmmpW1cHk3xilNlppi3j6Ip6w61/5SnhA6171TVfULVuTLycZz3YVWGsfKpftV5fFHVOXeKofvczp071y2dbktbnz59uv+rnY7hMQd9Lh36PrNFv/fcRmPn1TG5jTUVTWWofP36tf/rl5a+RaU6J/3111/9X8tROeZ9DqN5x0yrRT9LJx2DqGPIXwTHScvJRQ8GWMU8X52k4txhBXUmI5XLJzOdzLVOnMvtE3lL+ffLKh6YcNj18ZdYS6d2ijxP3vdSjNmvspg7u156AL8sf1lOPU/ouNGxrWNfbbPMfPxKnqOfP2NjWtvGP+5o/yov3WtwUKrByyK0/4Y6jlG+j0L3BbVYtJM2tXwtlGasi8Ky1HHOaeY2WkVd/HmzeE+PwioHlYvw5zqGeft+3vee+T2HVR8Xq1B9ly1zTtoPqzxmdP6OafneaCyGQdQxdJQ67qvS+mW2igGD8stX1xziL5NqZ8fr1yR9Eedf7fMX6bpbdX1aB/5TrlJMpS9MfUnGq6m7u7v9u/OtsixjFv31dkj1S+0QfZ7ULtvb290X+KoGH0pHnxe1t9te+6FVS9s4n62tra4DUXX+soPax1PN6+Sqo6S6aT3XV/vuoCw6AKvoionOxdpfrovCsnSujunFEL87V1kXdVol5lVdEVtG67m0mkWiMO/x/VO+9+LxF8ODBw/6NQ5f7lus6py0Kqs8ZjQY0/k7pqXPFRbHIGrNVVPT1v2RvJq6kOmDP2Wqi2g9nbxzR1+vp6YzNNVuHv/fFu7UeapENa3rn3/+6U7e6zTYbamPllUbeorMFPn49vSQljTm8VSZ1kfHjpXF/7dQns6yCA/Yq8/Fv//+2y1bpsppv6i+1bnDnaChaULq/Gjbsc+FO3F5ylw15dDnqinTpSrLtI0/q2ODyf26yjjU/lVc5ilJY1MSdZ5T52hV5xa3Q96HVRnGyqeBXet3k/O8f/9+t1yFqdMKp7T1VE7j8ePH3bLFfpxL/dlZxbk0f++1TGc+SFP6Fsuek1ZpmWMm07GjY+ggf0w5CRhErTl9KOLUNf2qqrh4X40+iPo1Y9XTcPaLTmqxrP7Ve+r9LP6yzYMlv/YJf4x/KctpqC1je6uc8de3fO+AOubqMOlKR/wCVJ20n54/f97HHLyhzu6Ylvp4P3j/if6upg94Xvn//ve/bilqZ6UZqTPhKwix3Drup1xRqFQdlCnT+WJZ4jGgvxWnL6tVdWJ9BSjWUfXXL6YqQ+sXvr6UVee4b1R/7Vd1IDygVH55HW1X3Vtg/uzEc5DSUVkz/zJqLkPmdqw6QVPbRvXI68jYfSW+B2OVg3Zx+8fyVMd7pWpf0fY+hvMgze2xKLWhjgul4TyUZvU5cfnyez6nTzn/Rp6qGTvky36X+dyU09FnN8ZNaeupqmNJ+z8e/0P241wq+uzk85fk77Usv5+/93y85O8JUV+kte1WZUrfYuo5aZ6hH0paLHPMZNU51N9VWMIe1pZ23+wk+PNpLw7xCTLip7TMTmp9zOo47SrE/FzG2Ym8j/mT3tM6VZ3ydjvF03Ky2UnstzSq+jvPWWerj/ldTkOvs/i+gsqWKf28Xua2rLavVG2qOlZlVFwVr/VdHqUncT8MmVIfcVoO2s5xuZ75WNL7rmOW84/7tir/vOMltoPXy2kMcdp5+3mGyuQ653iXKYbchhVvl9fN+0ahqm9um6HPSha38f7R3zmP/BkbKm+ufzS1bXJeU/avtonHl2n72Bat+9PrO+i147RvTHlXn924rbeP8vtuo1gOf44y7/MsHwuOq9onr1vVoaLt8rpuQwe9Hso3cp2H9nNMU2EovbxebGuXLe4zcdvGeJfHQfl5+3ny51Xp+3jJ+z7no/eH8nEaef15pmzjNoght1PmesZ9NtTG1bHi7eNnM6bptByq8ijNuI7bM9ZxqEzmPB28XrWd8hs69hY9Zqoy5zIpX+//oXpg3Cn9M2tA4NDpF5/Zh7r7dcy/AALAYfIv/nxV4qjRlQRdJZl1hJunI58k9C2wX5jOBwDAAE/18fQ/AACEQRQAAAN0f4d+xfbDQgAAEAZRAACM0IMguAEbABBxTxQAAAAANOBKFAAAAAA0YBAFAAAAAA0YRAEAAABAAwZRAAAAANCAQRQAAAAANGAQBQAAAAANGEQBAAAAQAMGUQAAAADQgEEU9t3Fixc3bt682b86eC9fvtw4derUxpcvX/oYAAAAYHEMonDs3bp1q1v+73//65YAAADAMhhE4UTY2traePbsWf8KAAAAWByDKJwId+7c6Zbv37/vlgAAAMCiGEThRLhy5Uq3/PDhQ7cEAAAAFsUgCkvTAxv04IYYpjzEIW+jB0Bk9+7d+22dKl09uCKuU6UjFy5c2Hj79m3/CgAAAFgMgygsRdPjNDjZ3t7e2Nvb68LOzk43+BmibTTY8foKumfp9u3bv023Uxq6j8nr7O7u/pGu0tEgKq6jdJ48edKv8YvWe/36df8KAAAAWAyDKCzl8ePH3SDqwYMHfcx/T8N79epV/+pPmlqnAU90//79bhmn2+mq0+bmZv/qv+1iuh5QxTitowHZw4cP+5hfzp8/3y151DkAAACWwSAKS9GVnRs3bvSvlvf169f+r42N69evd+kP/R9Tb968+W2QZefOneuWDJYAAACwHxhEYWEepHjQ0sJT+hx0NSvT1S1NE9RAyuvlgVF8z6G6CgUAAACsCoMoLC1ePZpCD364evXqb/dRff78uX/3dxpIxffzYEtXopxGDp6+BwAAAKwSgygsTIMUDWo0ra7Fu3fvumW8j2oe5aVBl/hqlKYRtjwowtsxuAIAAMAyGERhKXqwhK4Sxafhaare0H1M4ul/8Ul8+b4qDXg0NS/S48k1aPMgyA+jyHnpSleV/6dPn8p7qAAAAIAWDKKwFD2JT480131IvidJU/XGns6nK1B6gp7W8zZ+yp9poKR0/b6CrjppIGRaR9P28n1Rz58/L/PXYI+rUAAAAFjWqVkn9PdnTQPHkK56adCm/0dKj0EHAAAAFsWVKJwIL1686JYMoAAAALAsBlE4EZ49e9ZNIQQAAACWxSAKx54eNCF+EAUAAACwDO6JAgAAAIAGXIkCAAAAgAYMogAAAACgAYMoAAAAAGjAIAoAAAAAGjCIAgAAAIAGDKIAAAAAoAGDKAAAAABowCAKAAAAABowiAIAAACABgyiAAAAAKABgygAAAAAaMAgCgAAAAAaMIgCAAAAgAYMogAAAACgAYMoAAAAAGjAIAoAAAAAGjCIAgAAAIAGDKIAAAAAoAGDKAAAAABowCAKAAAAABowiAIAAACABgyiAAAAAKABgygAAAAAaMAgas1dvHhx49SpUz/DkydP+nf+o9eKf//+fR9T83oKX7586WN/uXfvXvfeEG8bw7w8AQAAgHXEIGqNaaAie3t7P8M///yz0ODl69ev/V8bG//73//6v+Z7+fJlV46tra3fyrGzs7Nx9erVjZs3b/ZrAgAAAMcDg6g1pcGLPH/+vFvap0+fNq5cudK/aqfB0LNnz8qrUZnWuX379sb29vbG06dP+9j/3Lp1qxtIvX79+mdZAQAAgOOAQdSa+vbtW//Xat25c6dbavrePL5i9eDBg26ZaSB14cKFPwZ6AAAAwDpjELWmLl++3C3v3r3bLVfl9OnT3dUoXUGaNy3wzZs3G5ubm/2rmu7ZUloAAADAccEgak1pyp4GO58/f+7uScoPlFjG/fv3u+Xjx4+7ZUVT+ZT3+fPn+5ia358yPRAAAABYBwyi1pjuQ9J9R/Lw4cOVDaY08Jl6NWqec+fO9X8BAAAAxwODqDWn+470NLzd3d3utQZTqxhI+UERY1ejpohP/QMAAACOAwZRx4Sm92kwJXrM+SroqXtDT9ebOk3P78+b9gcAAACsCwZRx4we9KB7lVbBT9179OhRt8yU17yHRuj9eQ+fAAAAANYJg6hjRv9P1CoHLboapUGZ/u+ozE8GHJo+6PihQRgAAACwjhhErambN2/+8X856bUGPKsctOhqlP6vp4rux9IDKKr7sPRa8RqELfOf/wIAAABHDYOoNfXq1avu/2nSE/kcdLVI90WtetAy9nAJPYBCD7Xw0wEd9FplGfqPeAEAAIB1dWrW0f3vaQQAAAAAgLm4EgUAAAAADRhEAQAAAEADBlEAAAAA0IBBFAAAAAA0YBAFAAAAAA0YRAEAAABAAwZRAAAAANCAQRQAAAAANGAQBQAAAAANGEQBAAAAQAMGUQAAAADQgEEUAAAAADRgEAUAAAAADRhEAQAAAEADBlEAAAAA0IBBFAAAAAA0YBAFAAAAAA0YRAEAAABAAwZRAAAAANCAQRQAAAAANGAQBQAAAAANGEQBAAAAQAMGUQAAAADQgEEUAAAAADRgEAUAAAAADRhEAQAAAEADBlEAAAAA0IBBFI609+/fb5w6dWrj5cuXfQz228WLFzdu3rzZvzpavnz50h0PDnoNAABw0BhEYWka4MSOrcJJoMHGSanrUXHjxo2Nra2tjb29vS6cP3++fwcAAODgMIjCUp48ebJx+/btjZ2dnZ8dW/19VK9kYH3pquTnz583rl271scAAAAcDgZRWMo///yzsbm5uXHr1q0+ZqP7+9WrV/2r4+vTp0/doBEAAAAnC4MoLEVXBoCD8P379/4vAACAw8Ugas3du3fvt3uR9Pog6SrU69evJz34YZVlzQ8YUJj6kIFcjjj10OlWZdPUxZiPttN9UZEfhOGgbTLfSzW0jtPQUnno75xP3F5h6oM3XAeHnO5USsfbuowOmd5XiG0Ty1vty9z+ykvTRkXLap2chvLL8r6vjpm8f6o2UjqKj2Wv9jUAADim9rC2ZgMYzSXrX/3nwoULe7u7u/2r/ff58+euDA5DqrLqteLHqC5ab2dnp4/5Fbe9vd3H7HV/K25e3dU+VVpbW1t9zH9l1XqZ4mJ583pVWfW+2kjcVn4tLndVJoVYR/F7kcquuHl1V3ljei5P3ge5nhWlo/W0fa5vLp/SUlyOF9dnSrmUj+JjfuL14z6s1nU7mfLOeVT5VnVyWgpxfwIAgJPhz14N1oI7n7lDeVjc0XSI3KHNnfyh+Kiq51Anfyh+Hm2jba0qlzvqsRxD27V2qrVNHAC4zlPr4rLlAdcUeWAhU9pReWm72B7iNsjtpLhqPw/l5XTiNlXakveD5Xi9rvKyqi2kal+vm8sCAABOBqbzrakPHz50y0uXLnXLw+aHLMw6qd1rTW+yd+/edcsrV650Sztz5ky3bLnXRdOnZp3ajevXr/cxv2h6lcqxCKVpfkjGixcvuqX8+++/3TI+QCPzvph13MtpYmOq9e/evdv/Nc3Xr1/7v9q1ltfy8efX3uemNsn7f2xfOh0f52M0nVSPPs/0+PO4X5WP1tXUwsqbN29+Hr+R0lH5375928f8MnY8AACA44tB1Jpyh/mo/T85eirf9vZ293e+T8f3jjhcvXq1f6fdw4cP/0hPHeQp8j0v1XZbW1tdp9rUgVbcmNhpV6dbaef7ZDRwiHkrtMr3XSmvqfL9S8+ePevfWY2W4/HHjx/d8uzZs91yGapHrFdVtwcPHnTHpva314mDR+27o/Z5AgAARxODqDW36BWE/XT58uVu+e3bt25pulJVhUV+zVdnuEpr3pUodZwlblNdfbhz507XqdaARW2sjrfi5lEnPKarwZ4Hk0pLAx4NxmL+LZSWBp+x/vFqyxgNHlWPmPe8gWErH4/nzp3rllPk42QRuU1jiDSQUlwc7EZH8fMEAACOHgZRa8r/4ejHjx+75VHi6XkeTLms1dPSWmmQMjS1ah7n//jx4245RlPPlI+mk6mN9XeejjbP06dPu6UHCZ6adv/+/W65CE+T02CghQYHGjj4KuGq5OPPr73vx7g9q33p6ZNT0tFgNV41nELHkdvCAyelU12V1HGjtqumHQIAgJOJQdSa0tUbdez92Gfzo6RFVy105aV6XPcqKJ88JUp/q0zqkLqT7LLm6Xta11eGWmgQpM5uniqneo49Zvr06dPdMt6vo/WrjrP8/fff3X8m/Pz58+7vedT2cQpjHlB42loceAzdnzPEV3jigLS6HyjzNLU4YFFZl53Op30d66zXLQNOT6+L+0110xU8XV2aks6jR4+6QU4+zpWm46pjTW2hsrptlI7kfaLjVuu1DlwBAMAxtoe1NuvcdU8Jc5h1Svt3fj3NbNYZ7WNWz3kMlSGaDaz+WHee6ul84vgYhvKN8nYqk7bT39msY/5zPf2daVu1f+T1HXK5nZeDXisdBRuqs2l/xjS0nsoxbz/H+ihoG++/WD/Fx/JUXA9tF4/BaruqnaJqX1Z1d1mr93LdFHJ7ePsYKnmdql29DwAAwMl0Sv/MOgMAMJmu8uhq0Wzw8vNKDgAAwEnBdD4AAAAAaMAgCgAAAAAaMIgCAAAAgAbcEwUAAAAADbgSBQAAAAANGEQBAAAAQAMGUQAAAADQgEEUAAAAADRgEAUAAAAADRhEAQAAAEADBlEAAAAA0IBBFAAAAAA0YBC1j548ebJx6tSpjS9fvvQxOG5evnzZ7WMtjwIdayqPjr3D5HLcu3evjwEAADg+1nYQ5QFKDO/fv+/f3V/KJ+ftsOpOo/OiMwoAAAAcDWs5iLp48eLGw4cPN/b29n4LV65c6dfYX9+/f++WOzs7f5Th6dOn3XsAAAAAjqe1G0TpCtTnz5+7cBJoYNg6ODsqU7qARXD8AgCAo27tBlG6ArW1tbVx/vz5PgYAAAAADs5aDaJ8z9O1a9e65XHhhxM4xIcUDP0qf/Pmzd+2McVfuHCh+1sDTr+vdMxpxhDfF5dJ8TEvTaU0xykMXTWI6yhMfQCD7gHL2yqoLOI65HvFHJ/LU9U530MX66x66m/nZ3H7/F6U96lCpu0V4j12sX1Uh7h9bPtFxLQUhsrvuitMzVNpxbSHzNsPSmeR47e6ZzCvx32FAABgVdZqEOV7kSR2jhSmds6PGpX79u3bG7u7uz/vq9LrMepofvr06ef6ujfLHcRXr179nOq4vb39cx1fuVOHVZ3U+J7+VlweVIji7969263naZTuZOtvb68Ob9wHHhg4DwVdQVTdqnwi1eXZs2c/t1PbiPJR/VqpXDdu3PitLJubmxtXr179rXNuqvPjx4+79WJ+qo/ecxrXr18v95XK/+7du5/rKUg1IHn9+nVXDq9369atLt4DHMe77YcGPmM8mFD7Oz0F5Z3LpNcKXufvv/+eO61OZVJaPh60v9RO2ZT9sMjxq/V1vMS2UXp5PcXNO/YAAAAmmXUu1sZssKDeaBeiWeewi9P7ByGWI4do1oHr4madvD7mT15niLbV+1rPZp3Drs5Dqm1M2846rv2rX3K865jbVOtUdVLcWJlkrFxRtU4un9PKeU7NY9bR79aL9XOdq3ooPb2X6z312Ku2d1uqLFM4rzFV/ZWP2i+r2iBvO0+Vhoy1ZVRtP7YPh45f5+e2dLp+DQAAsEpr+XS+Wceo/+s/fujC8+fPu+VBmXXc1KP9LbS6fPlyt9SVgqn0a75+eW+dnqRf4mcd1O4KSqarD7q6lZ05c6b/6z++IlDdk+arCfN8/fq1/+vwffv2rf/rlzt37vR//fL27dvuykaud+vU0h8/fvR//Udptj5Vcmo7m64S6ZjJnK+umtlsgNJdVZx39ck+fPjQLS9dutQtLb+ep9oP2djx6/xcHtdNV7m4+gQAAFZtLQdRcVqfqTNaDQKOOnX2PCjUQEph3tREDRq3tra6gZS3aRHvNXFQR3vVPKXPQftoCtVNZTS1hzrPmla4KKURy6LO9X7SADfmF+szlaanxTS0v1t5wHXu3LluOY+m03kgpTyrKYjLWGY/eAB69uzZbjmPf9RQHsqr9UcHAACAIWs1iPJVkSm/Wq8TP8ZcQQONKfcNaSCl9T0Aa+nsbof7RGJY5SBUnWV1XmNeGghN8ebNm27pjrbaQ1f9fL+QVFfChuiqitNwWfLVzFXS4EcDHtXX+akdWmh/amDr7RU0uFxUy9U/DaSUn9pLdVjkPqzKqvZDy+c/tp32ydQrbAAAAGPWahDlKTqaWhV5mo9ugl93npJYXW2rqE3UQZwyQNHAQ4O03H77wVPEHjx40C2n0uBRdYkDEIU4gBrz8ePH/q9fPBVvahoVtZ3KlKfSxalwpsGP9knLQC/y8dw68Kp4n3tgGvmK59CURLWXrkqNDa59VSi3+37sh6HPv/z777/d0tNjM0/5PUpTSQEAwPpau+l86liqk+oOoPh+j9hh93SquN5RpCsO8arT0D0mpnXzVSd1kNXZNXfeq86mnjqn9su/yKu9VvkrvaePxbpV9+UMUWfbV6Ic8tU5X13wwEb7unpaXjUAap3Od//+/W4Zp4Tp72qKXR60qNwt0/mq/ae6LTKdT7TPVf9YdrWF2krHjQc1yiNfddKxMrbftK3qG9t92f0wdvz68x+PVbevjgcPtPLx7GPnuP33CAAA4JDsraFZR6p78pbDrCPYv/PLrEPVvbeTnhq2Crv9k7+qEMvics46jn3Mn/ReTkPpm99XWpbrP+vE9u/8kssYVeWP6YvaTfGxLOJ2zRSX94PXdVCaKqvix6gsuTyuc96fytPpux30d94+rqfgNojrDdXZ8r5SPRyXyxXXU3B+MW2Vqdp3kvPSei6f3htSHS+S06vWkbzP8j4dovJ5G9dJy7yvp+wHcbxDlN9TyO0vsUwKVX0BAAAWcUr/zDoYwJHgqxjVYamrUbNO+c+pWQAAAMBhWMun8+H4qu4xEk8Bm/qUOQAAAGC/MIjCkeJBUnXPlvz111/dEgAAADgsTOfDkVM9mODChfX8f8AAAABw/DCIAgAAAIAGTOcDAAAAgAYMogAAAACgAYMoAAAAAGjAIAoAAAAAGjCIAgAAAIAGDKIAAAAAoAGDKAAAAABowCAKAAAAABowiMKJdfHixS6syvv37zdOnTq18eTJkz7maHv58mVXXi0PwpcvX45E+7gc9+7d62NONh+3B3UcYDX0OdJ+0/F8FOncqvKt07F11NrUn00HAEfLWg2ifIIbCjdv3uzX3F/zOp8up06AAACcJP6BYm9vrwu3bt3qXp8k7ics86PR1atXN7a3t3+243Gldpr3g6aOKa13VH80wMm0VoOoBw8e/DyZxLC7u9u9f/369W4JAAAOx7NnzzZu3LjRv8Ii/CPt5cuXu+VJph+kdUypr3f+/Pk+Fjh8x2I63+PHj7ulBlnAceJf33B0aH8wFXA9MFURh0VX3/QjL/2S+dROnz596l/96e7du90VuStXrvQxwNGw9oMoXdp9/fr1xtbWVh8DAAAOA9OtVuPbt2/9X9AAi8EojqK1H0T9+++/3fLOnTvd8qjy/Gh9wejeLf2tMDQPON//NW++sH9xreZfV1czXJ6h9PMNrQ5TfoGvtlPwr8FD94w5Pn8JT2kLxalssV4x/ZxGzjuK+0dhqM7K0+vM2z9x3Snru/01hUG8XS6L920MQ52YuM68+wfjumPrT1lniqntE9eb14aW9+cQtVtcTyEeJ25r0X6p1hHHO6yq7fJn1p+nKB8PQ8fuFFV7DB1bkeqikLf3uSnXY8rxqjDURkPHhP7WPSVy+/btn+uYy+nPmkJs01Wcd/L+GKpDNu9YnMrpaNt5x4/f1zZu01xevY5pKESq74ULF7q//RnJ7ZbT8HERxX0ytE7ePwq5jZyOls632o/zLLIfnXdsZ6Xj/GN6io8U9/Dhw+5vHcN6HdugOj5yGqJyKsT2dHnmlSVuo6DXWV5Hofo8V+WN66kcVZuqLGPbSTxuvY8VFtnPQLO9NacqzE7a/auDsbOz0+WrZWV7e7t7f3d3t4/5tU3eTq83Nzf7V//Ra6Vhnz9/LtfL1A7VOtp2a2urf1WXT9spbki1TSXnpb8VpzrYUFqOj+tObQvVXfHVseB0c7tX6yuu2m+xDOL8LO7fvK7ihso7j9uvUu0zr5/bVnGxrm4Thdgubt+4DyVvL3k9/R3Typz2ou2juLie0slpZW4jH1NqF71WiGVXuXP98raWt7X9bDsfX3G/6nVUHQ96nds2c5vE/B0X29fHTD62MpdDwbxt3ofVfm5px5xePiaqullVTtN7MR2XKeYlLn8ulyiuatPq2Im0TU7PZY3Hots0H5+Ry121k+Jj+fS34nK8KY0p5XKeVT1zGtW61T7TNjEPrZ/zrerktBTi/hxStanyrtKctx+rerjcMQ+vl8vnsuj9qFrf7ZiPT+8fhawqi8qq13k/DR1/OT9tk/Oqyqt84rbabqjskcsc28RlVohtrdc5TWDV/vxkrRF/ePLJZ7853/iBjaqT39A2XjeenCo+eYyp0vIJzGXxyTa32VC86b15JyTXsco/1rtqH1mmLXzyrrZVvLaJXN/4RTEkn+Bdz6HyxzYc2m/z2tuGth8qg+TyDrWr0477RttVbZL3o8sft52nqnNL++TX81THnrjt8jGRDW0/tO1+tp334RDXKR8PQ/FRVc98DNlQfKT3c1ld57xtVb6p7Sh6PXZMVNuYyznWNlF1rKqcilP9phiq2zxVPXxMjOU91O6S470vqmN7LK+8jfPM6QylkeNdjiovmbdPY/t63ar+lSltKlP2Y1VOH0M5/So9lyUfn1qvqo/bLa6v9ao0ZKgsistlqepSGSrDvLbKdarSsaF1c9mm7ktgGWs9ne/58+fdcp3myp45c6b/azHVpXL766+/uqWnOMqLFy+66RW+IfPjx4/dMj/xx0+8+fr1a7eMfHn/6dOn3fKoyG0xO7H+8eQeT0G4du1atzStp3aZKt70+u7du26Zb3KtnqL05s2brlyZ83/79m0f02aoDKKnYuk+QVMeyiu3TW4T0XbVU7Wcj/N1+TVNKk8LatHSPlpPU1yqqT2VDx8+dMtLly51S8uv55l6b8J+tp2PLU1TqQwdDz7ffP/+vVtOoc/VrONRPu1UU2TGbgA31S/ysZePQYvlm9qO0npMZCpn9RkaM+W8M0Ztu6hF75Op9qXKHc8TVk2NHzqHiNLR53ieoTTOnj3bLX/8+NEt/fnUutX33dDnWlRPtW/eTg8mWLVl9mPL8RKNfTbdHm4fm3eM57Jo/aGpcFOPvymf5zEt32+2bN8KWMTaDqLUOdYHaesQHigx9cN6+vTp/q/5/AVicW6vgu+NGaOTob7QYsdTX25///13/+oXz7OOoaJ2Vt7b29tzT/z+v0D+97//dUvxkxOX+X9CFmmLZcS8FJb5stS2i35hjtGXqb7sVskdj3PnznXLedSZVhl8v0k1p32elvZ59erVz06z8lv1nHfPrXfw/TRT7HfbqTOx2/9XDi5fNQDzew4tdcjczjFUnZdVam3H/TwmVnHeUXliGlPbb5ljcaqW85KO11W0rT7vsV4K+gxEKpfPufqMaJ04SPYPfftxXh2y6H5sMeV7xv0EDzwPW74vLe/L1s+zrfL7LfetgFVa20GUrrDIYT5QYt6vMoue5HXC1kl6b+/X/4U1dbCoX9y0rU5CGgDpxOwrVJE6ZDF9h3y1SenpZDblap+v+viGYn/ZKN2o5QtgmbZopTZTmdUpi/ktezL3F8mqTfnSXUR1NXKIOldqIw2ytZ+qm5vnaWkfdZqV387OTlf/RQZuFXUG1AFQut7vHrS02M+200DKZfMAzJ858/s5LPIjhspVpaVy77eWdtyPY2IV5x2dSySmoXPLPKs6Fudp7aiuYr8rv9geMcSrDvrudLwHyflHg/06r2aL7sf9dBSe3KfzlfZL7EvomK20fJ5tv77fgFVa20GUOuo6IY9dpt4vylN5xys+0T///LPwSVZfDDp5qAOzCHeWNG1Pl/VVjjiYG7rkX9GXlsriaZPzaGCr/OKXjcJUuT2XbQvx1cA4BUicduSpjo8ePeqWQ/yrWu7AVm2q9lBnLPMAd9H/INrb5TKIPhvx+PMvu7nTkdtE6+m4rqbmuANTTQEUDbK1bWvHZtH20XGubcc6dh6se79afi2earToFdODbjt/Jj1txmlXx0Mr12Xo/LaflmnHKcfEFKs473g/+Ep8i2WPxUq1L/W5mzrNSutV5xC9nprO0FS7efzDngcO3v/V51jfvWo7HUersMx+3A/u71T709P4D+o/59VnVJ+3sT7Y2Od5TMv3G3CoZp3ctTP7citvJIx80+TYOstQukpf+USzD3cXP/uy6GP+4/V3042SrkuM12ulY962SreiMmn72cmrrL/bJpdF64+VYx6nm4PSzRQf03a7KcQ65vWG2kJ5DJU111fbOY1YNr2vOO0T87a5DjnO+zFv7zRz2ao0K9XxYc4vcjvGtnF9YxnivorHiNtX71u1vcpVrRPrnlXrTG0flataJ5ahojS0nsXjJ27r9ojt5vVynZRmte/2s+2UXzwGtK62ieXNdRWnPcb7oDoOcplU7rFyiupatY/Si/UW51PlPa8dtd68Y8Lb5XxlqJxS5aU4hdzmuQxS5et9pjBG2+R8vF1s++oYyFwOhVhO5xGPKdexOtc4ndxeY8dc1eZVGsovxqmc1fEQy+V8Y92rOulvxcX0xuQ2reoydT9WebuMmeqc451PrI84XktzXrnNlW5ubxsqi9bPx7TTj3nmMrutFKr9l8sb86jydFqR84z7vTo+pGo/13nq8QDM8+cnaA34BDrmoD4syiOGfCKwlg96PBkpqL7ePp48higtbzvE+cYQy+D8chg6IZvez2Ws9leuo8pT1XFqWyh+qO3Fx4ODtlVcrk+ut9ap1pO4nvPW3/HLwuK6CkpzKn9xKOS043sKVTklt6Pyd5zqHOV1Fao65bzn1cnpLto+iovrjO3vSG3ibdw+WuY8cn38Ocrlze2j17bfbRdDPpdITldhHtczHwfxPOJQ1SVTGYY+L7me/rwtegxOOSbiZzqWa6ickvPXek4n7m/FV3lKbj+tpzro73m0bty2OhadVixP5npoXa/vkLdz/arjylTfmEZVd+c5dEznNKp9EN9XyMeH5H2vkA0d20OqNl10P1Z5u8yZ93fkPKr9kcukUNVR6VbtK0NlqY5p56cyRXlfVnUWvY7rKURVnuJ2cajq4rRzO1Xt5zpXbQUs4pT+mR1UwNJ0L4Iu3+f7qjQNR3P8ZyezQ5l+CQAnkabOzTqe3dTEdXqKLQCsg7V+xDmOlureFvFc9panFQIAAABHFYMorIx+8dRNn/HGYf2tJ/hsbrb9XyoAAADAUcUgCiujp2JpsKTBlB9x7qkkegwxAAAAcBxwTxQAAAAANOBKFAAAAAA0YBAFAAAAAA0YRAEAAABAAwZRAAAAANCAQRQAAAAANGAQBQAAAAANGEQBAAAAQAMGUQAAAADQgEHUmvvy5cvGqVOnNu7du9fHTOdtnzx50sccT6rjzZs3+1cAAADActZyEKUBgzrGMRyk9+/f/5G/w8uXL39bZ5HBDQAAAICja+0GUbqi8OzZs429vb2f4cKFC92A5aB8//69W+7s7PxWDoVbt2517wEAAAA4ntZqEKXpZ69fv97Y3t7uY/7z+PHjbumrQEfBlStXukHV06dP+xgAAAAAx8FaDaJ+/PjR/wUAAAAAh2OtBlG6uqOpew8fPuyuStmjR4+6+KM0la56aIOulClO72laov5WuHjxYr/GfHE7hTF53WUeIOGyO1Rlju8rVFcGVYa4ju4dy3K5FabK98vF4yTL6065f83tkOvm+FyfKfsrvq+gbQAAAHB0rd09UW/evOmWGjS5g/r58+eNT58+dfHrQGW/e/fuz/uoVP4pHWeto+mMWl/b7e7udmlVNMhRm8Q8NPhc5EEXGvjcvn27y8/p3bhx4+egzA/R8HsKW1tb3TZxUKH1VQaXX0u1Q5TLrbC5udmlPzYgEtVN98u5nEp/qH3UlvneOr1e5QBGacW66B662P4eaKutYjm0j1sG1gAAADhgs07bWlLRHba3t/vYgzHrDP+Wfwyzjnu3jpZ6Hcvm7bSMtE7ctjIbGJTbOs1ZR7yPGU4vx1dlrOT0p6jSVhqzQU3/6k9j7TCvDEN1cbvNBmJ9zK8203vRUHzkdYb2Q9xWdR0rs8pUtcfQvgYAAMDRsHZXojwFa9Y57X6111JXNw7jl/tZJ/e3KwgK58+f798ddubMmf6v6T58+NAtL1261C0tv5a3b992V2ByWc6ePdstW+4t85Wka9eudctWX79+7f/6L43ZYGdwXw2VW3Q1ylchKx8/fuyWly9f7pamKaDZu3fvumV+z/vFT19clq7W6erW0NU/XXHSOpnL5XICAADgaFmrQZTuO1GndHt7++dT77TUYEad80Wmqh0lq3xwhtpDg80YNL2ulQcU8wZ+ntLnoMFQpnvWvK+8Xpzup6lvBzkYjuVVuHr1av/OaujY1CBfx6zzME9NPHfuXLcEAADA+lirQZR/mX/w4EG3ND9QYt49MyeJBjH5KplDdXVmnrGrMxrcagCiwa3z0ECpon3ldUTbxf12kPe2uRw5jD2gpPUqogZSSnN3d7d7nQeJ8UodAAAA1sPaTeeTkzhY8lQ8T1uz/FquX7/eDWJW0U6eLjg2tWxocDuPrkqJr8BpaltVbr0emvpmHtx42qPFK13mqYnVe4uaN/VOA1ddlfLgUlMWNdCtpij6yX+LTqEEAADA/lqrQdSdO3e6ZZ6259d61Ln53qn8KOp1pasj6nTHKXmqWzVFz4OZPOjQoKF1upw6+56SFgcdetKen87nKWnx/WrAo/0RB0geePjK2P3797tl3tavx/7jYqWh+6bi4+9VnmqKntsyv6ft4pS7ivLRtvlYU/tEVVtrwKQymv6TaA2q4vGsMmifar2xK2IAAAA4PGs1iFIHVp1OXZXwPSYK6sBqypQ748eVprqpA+96qyOveisuU7zEdtLjxBeZLud7ezTocFp6CIQHa1rm9zVAyOXSlLZYfu03X5kRDdiqcmsw4vgxr1696gYfzkPl0XZx4GJqB8XHfLTdlHy0rcrt7cTT9UzH4t9///1b+qIymgZJSifeM6UyaFpkXA8AAABHy6lZp3F+rxEAAAAA0FnLe6IAAAAA4LAwiAIAAACABgyiAAAAAKABgygAAAAAaMAgCgAAAAAaMIgCAAAAgAYMogAAAACgAYMoAAAAAGjAIAoAAAAAGjCIAgAAAIAGDKIAAAAAoAGDKAAAAABowCAKAAAAABowiAIAAACABgyiAAAAAKABgygAAAAAaMAgCgAAAAAaMIgCAAAAgMk2Nv4f/4eE+YqG5DYAAAAASUVORK5CYII=;" vertex="1" parent="1">
          <mxGeometry x="-5.5" y="850" width="849" height="672" as="geometry" />
        </mxCell>
        <mxCell id="kFS-a1BfFj7-nJZPOQID-59" value="&lt;font style=&quot;font-size: 30px;&quot;&gt;DescripciÃ³n&lt;/font&gt;" style="text;html=1;align=center;verticalAlign=middle;whiteSpace=wrap;rounded=0;" vertex="1" parent="1">
          <mxGeometry x="240" y="780" width="330" height="60" as="geometry" />
        </mxCell>
        <mxCell id="kFS-a1BfFj7-nJZPOQID-60" value="" style="endArrow=classic;html=1;rounded=0;" edge="1" parent="1">
          <mxGeometry width="50" height="50" relative="1" as="geometry">
            <mxPoint x="590" y="780" as="sourcePoint" />
            <mxPoint x="590" y="840" as="targetPoint" />
          </mxGeometry>
        </mxCell>
        <mxCell id="kFS-a1BfFj7-nJZPOQID-61" value="" style="endArrow=classic;html=1;rounded=0;" edge="1" parent="1">
          <mxGeometry width="50" height="50" relative="1" as="geometry">
            <mxPoint x="210" y="780" as="sourcePoint" />
            <mxPoint x="210" y="840" as="targetPoint" />
          </mxGeometry>
        </mxCell>
      </root>
    </mxGraphModel>
  </diagram>
</mxfile>
